<?xml version="1.0" encoding="utf-8"?>
<!-- Generator: Adobe Illustrator 17.0.0, SVG Export Plug-In . SVG Version: 6.00 Build 0)  -->
<!DOCTYPE svg PUBLIC "-//W3C//DTD SVG 1.1//EN" "http://www.w3.org/Graphics/SVG/1.1/DTD/svg11.dtd">
<svg version="1.1" id="Layer_1" xmlns="http://www.w3.org/2000/svg" xmlns:xlink="http://www.w3.org/1999/xlink" x="0px" y="0px"
	 width="640px" height="602.164px" viewBox="0 0 640 602.164" enable-background="new 0 0 640 602.164" xml:space="preserve">
<g id="XMLID_218_">
	<path id="XMLID_219_" fill-rule="evenodd" clip-rule="evenodd" fill="#DFDEDD" d="M640,601.031H0
		c0-176.612,143.387-319.999,320-319.999S640,424.418,640,601.031z"/>
	<path id="XMLID_220_" fill-rule="evenodd" clip-rule="evenodd" fill="#FFFFFF" d="M168.724,445.392
		c-4.133,0.016-9.561,0.012-15.315-0.061c6.704-28.707,19.414-120.922,19.817-182.58c0.029-4.441,3.143-2.792,3.143-2.792
		l0.009-0.004c0.183-0.092,3.107-1.504,3.135,2.796c0.403,61.658,13.112,153.872,19.817,182.58
		c-5.409,0.069-10.531,0.076-14.559,0.064c-4.953-24.992-7.339-42.37-8.401-63.197C176.358,392.351,173.677,420.402,168.724,445.392
		z"/>
	<path id="XMLID_221_" fill="none" stroke="#134575" stroke-width="2.2663" stroke-linejoin="round" stroke-miterlimit="10" d="
		M168.724,445.392c-4.133,0.016-9.561,0.012-15.315-0.061c6.704-28.707,19.414-120.922,19.817-182.58
		c0.029-4.441,3.143-2.792,3.143-2.792l0.009-0.004c0.183-0.092,3.107-1.504,3.135,2.796c0.403,61.658,13.112,153.872,19.817,182.58
		c-5.409,0.069-10.531,0.076-14.559,0.064c-4.953-24.992-7.339-42.37-8.401-63.197C176.358,392.351,173.677,420.402,168.724,445.392
		z"/>
	<polygon id="XMLID_222_" fill-rule="evenodd" clip-rule="evenodd" fill="#FFFFFF" points="223.17,512.977 199.568,512.977 
		184.23,471.398 168.509,471.398 153.171,512.977 129.569,512.977 150.42,456.453 202.319,456.453 	"/>
	
		<polygon id="XMLID_223_" fill="none" stroke="#134575" stroke-width="2.2663" stroke-linejoin="round" stroke-miterlimit="10" points="
		223.17,512.977 199.568,512.977 184.23,471.398 168.509,471.398 153.171,512.977 129.569,512.977 150.42,456.453 202.319,456.453 	
		"/>
	
		<rect id="XMLID_224_" x="122.066" y="512.977" fill-rule="evenodd" clip-rule="evenodd" fill="#FFFFFF" width="106.432" height="20.123"/>
	
		<rect id="XMLID_225_" x="122.066" y="512.977" fill="none" stroke="#134575" stroke-width="2.2663" stroke-linejoin="round" stroke-miterlimit="10" width="106.432" height="20.123"/>
	
		<rect id="XMLID_226_" x="148.306" y="445.331" fill-rule="evenodd" clip-rule="evenodd" fill="#FFFFFF" width="56.128" height="11.122"/>
	
		<rect id="XMLID_227_" x="148.306" y="445.331" fill="none" stroke="#134575" stroke-width="2.2663" stroke-linejoin="round" stroke-miterlimit="10" width="56.128" height="11.122"/>
	<path id="XMLID_228_" fill-rule="evenodd" clip-rule="evenodd" fill="#FFFFFF" d="M275.961,601.031h-67.722
		c1.579-3.941,2.448-8.242,2.448-12.745c0-18.94-15.377-34.318-34.317-34.318c-18.94,0-34.317,15.377-34.317,34.318
		c0,4.502,0.869,8.804,2.448,12.745H76.778l48.117-67.931h102.948L275.961,601.031z"/>
	<path id="XMLID_229_" fill="none" stroke="#134575" stroke-width="2.2663" stroke-linejoin="round" stroke-miterlimit="10" d="
		M275.961,601.031h-67.722c1.579-3.941,2.448-8.242,2.448-12.745c0-18.94-15.377-34.318-34.317-34.318
		c-18.94,0-34.317,15.377-34.317,34.318c0,4.502,0.869,8.804,2.448,12.745H76.778l48.117-67.931h102.948L275.961,601.031z"/>
	
		<rect id="XMLID_230_" x="167.3" y="281.334" fill-rule="evenodd" clip-rule="evenodd" fill="#FFFFFF" width="18.14" height="12.108"/>
	
		<rect id="XMLID_231_" x="167.3" y="281.334" fill="none" stroke="#134575" stroke-width="2.2663" stroke-linejoin="round" stroke-miterlimit="10" width="18.14" height="12.108"/>
	<path id="XMLID_232_" fill-rule="evenodd" clip-rule="evenodd" fill="#FFFFFF" d="M176.37,252.85c3.758,0,6.809,3.054,6.809,6.812
		s-3.051,6.808-6.809,6.808s-6.809-3.05-6.809-6.808S172.612,252.85,176.37,252.85z"/>
	<path id="XMLID_233_" fill="none" stroke="#134575" stroke-width="2.2663" stroke-linejoin="round" stroke-miterlimit="10" d="
		M176.37,252.85c3.758,0,6.809,3.054,6.809,6.812s-3.051,6.808-6.809,6.808s-6.809-3.05-6.809-6.808S172.612,252.85,176.37,252.85z"
		/>
	<polygon id="XMLID_234_" fill-rule="evenodd" clip-rule="evenodd" fill="#FFFFFF" points="457.206,444.928 333.149,601.031 
		581.265,601.031 	"/>
	
		<polygon id="XMLID_235_" fill="none" stroke="#134575" stroke-width="2.2663" stroke-linecap="round" stroke-linejoin="round" stroke-miterlimit="10" points="
		457.206,444.928 333.149,601.031 581.265,601.031 	"/>
	
		<line id="XMLID_236_" fill="none" stroke="#134575" stroke-width="2.2663" stroke-linecap="round" stroke-linejoin="round" stroke-miterlimit="10" x1="429.232" y1="480.129" x2="485.182" y2="480.129"/>
	
		<rect id="XMLID_237_" x="295.021" y="148.033" fill-rule="evenodd" clip-rule="evenodd" fill="#FFFFFF" width="57.062" height="418.878"/>
	
		<rect id="XMLID_238_" x="295.021" y="148.033" fill="none" stroke="#134575" stroke-width="2.2663" stroke-linejoin="round" stroke-miterlimit="10" width="57.062" height="418.878"/>
	
		<rect id="XMLID_239_" x="284.941" y="176.983" fill-rule="evenodd" clip-rule="evenodd" fill="#FFFFFF" width="24.939" height="389.928"/>
	
		<rect id="XMLID_240_" x="284.941" y="176.983" fill="none" stroke="#134575" stroke-width="2.2663" stroke-linejoin="round" stroke-miterlimit="10" width="24.939" height="389.928"/>
	
		<rect id="XMLID_241_" x="336.931" y="176.983" fill-rule="evenodd" clip-rule="evenodd" fill="#FFFFFF" width="24.939" height="389.928"/>
	
		<rect id="XMLID_242_" x="336.931" y="176.983" fill="none" stroke="#134575" stroke-width="2.2663" stroke-linejoin="round" stroke-miterlimit="10" width="24.939" height="389.928"/>
	
		<rect id="XMLID_243_" x="261.934" y="445.296" fill-rule="evenodd" clip-rule="evenodd" fill="#FFFFFF" width="123.163" height="121.615"/>
	
		<rect id="XMLID_244_" x="261.934" y="445.296" fill="none" stroke="#134575" stroke-width="2.2663" stroke-linejoin="round" stroke-miterlimit="10" width="123.163" height="121.615"/>
	
		<rect id="XMLID_245_" x="229.674" y="568.515" fill-rule="evenodd" clip-rule="evenodd" fill="#FFFFFF" width="187.683" height="32.517"/>
	
		<rect id="XMLID_246_" x="229.674" y="568.515" fill="none" stroke="#134575" stroke-width="2.2663" stroke-linejoin="round" stroke-miterlimit="10" width="187.683" height="32.517"/>
	
		<rect id="XMLID_247_" x="247.568" y="497.394" fill-rule="evenodd" clip-rule="evenodd" fill="#FFFFFF" width="151.968" height="69.517"/>
	
		<rect id="XMLID_248_" x="247.568" y="497.394" fill="none" stroke="#134575" stroke-width="2.2663" stroke-linejoin="round" stroke-miterlimit="10" width="151.968" height="69.517"/>
	
		<rect id="XMLID_249_" x="276.537" y="223.958" fill-rule="evenodd" clip-rule="evenodd" fill="#FFFFFF" width="33.343" height="342.953"/>
	
		<rect id="XMLID_250_" x="276.537" y="223.958" fill="none" stroke="#134575" stroke-width="2.2663" stroke-linejoin="round" stroke-miterlimit="10" width="33.343" height="342.953"/>
	
		<rect id="XMLID_251_" x="336.931" y="223.958" fill-rule="evenodd" clip-rule="evenodd" fill="#FFFFFF" width="33.343" height="342.953"/>
	
		<rect id="XMLID_252_" x="336.931" y="223.958" fill="none" stroke="#134575" stroke-width="2.2663" stroke-linejoin="round" stroke-miterlimit="10" width="33.343" height="342.953"/>
	
		<rect id="XMLID_253_" x="352.54" y="477.995" fill-rule="evenodd" clip-rule="evenodd" fill="#FFFFFF" stroke="#134575" stroke-miterlimit="10" width="32.261" height="88.916"/>
	
		<rect id="XMLID_254_" x="352.54" y="477.995" fill="none" stroke="#134575" stroke-width="2.2663" stroke-linejoin="round" stroke-miterlimit="10" width="32.261" height="88.916"/>
	
		<rect id="XMLID_255_" x="262.011" y="477.995" fill-rule="evenodd" clip-rule="evenodd" fill="#FFFFFF" stroke="#134575" stroke-miterlimit="10" width="32.261" height="88.916"/>
	
		<rect id="XMLID_256_" x="262.011" y="477.995" fill="none" stroke="#134575" stroke-width="2.2663" stroke-linejoin="round" stroke-miterlimit="10" width="32.261" height="88.916"/>
	<polygon id="XMLID_257_" fill-rule="evenodd" clip-rule="evenodd" fill="#FFFFFF" points="309.88,129.972 336.931,129.972 
		342.42,147.379 304.917,147.379 	"/>
	
		<polygon id="XMLID_258_" fill="none" stroke="#134575" stroke-width="2.2663" stroke-linejoin="round" stroke-miterlimit="10" points="
		309.88,129.972 336.931,129.972 342.42,147.379 304.917,147.379 	"/>
	<path id="XMLID_259_" fill-rule="evenodd" clip-rule="evenodd" fill="#FFFFFF" d="M323.449,79.896c6.502,0,6.628,9.558,6.628,9.558
		v21.349l6.825,19.169h-26.979l7.163-18.199l-0.116-22.534C316.969,89.239,316.39,79.896,323.449,79.896z"/>
	<path id="XMLID_260_" fill="none" stroke="#134575" stroke-width="2.2663" stroke-linejoin="round" stroke-miterlimit="10" d="
		M323.449,79.896c6.502,0,6.628,9.558,6.628,9.558v21.349l6.825,19.169h-26.979l7.163-18.199l-0.116-22.534
		C316.969,89.239,316.39,79.896,323.449,79.896z"/>
	<polygon id="XMLID_261_" fill-rule="evenodd" clip-rule="evenodd" fill="#134575" points="324.631,4.009 327.678,79.896 
		323.669,83.909 319.659,79.896 322.706,4.009 323.669,0 	"/>
	<path id="XMLID_262_" fill-rule="evenodd" clip-rule="evenodd" fill="#FFFFFF" d="M423.071,390.174l66.492-24.988l-32.308-39.117
		l8.231-8.634l78.007,31.07c0,0,57.263-19.003,66.927-21.759c9.664-2.753,22.694-2.548,24.463,4.161
		c1.773,6.706-6.246,13.9-15.956,16.894c-9.707,2.99-146.505,48.899-146.505,48.899L423.071,390.174z"/>
	
		<path id="XMLID_263_" fill="none" stroke="#134575" stroke-width="2.2663" stroke-linecap="round" stroke-linejoin="round" stroke-miterlimit="10" d="
		M423.071,390.174l66.492-24.988l-32.308-39.117l8.231-8.634l78.007,31.07c0,0,57.263-19.003,66.927-21.759
		c9.664-2.753,22.694-2.548,24.463,4.161c1.773,6.706-6.246,13.9-15.956,16.894c-9.707,2.99-146.505,48.899-146.505,48.899
		L423.071,390.174z"/>
	<polygon id="XMLID_264_" fill-rule="evenodd" clip-rule="evenodd" fill="#FFFFFF" points="401.988,364.825 408.322,359.219 
		438.698,372.089 416.348,380.678 	"/>
	
		<polygon id="XMLID_265_" fill="none" stroke="#134575" stroke-width="2.2663" stroke-linecap="round" stroke-linejoin="round" stroke-miterlimit="10" points="
		401.988,364.825 408.322,359.219 438.698,372.089 416.348,380.678 	"/>
</g>
</svg>
