<svg id="Pictograms" xmlns="http://www.w3.org/2000/svg" viewBox="0 0 240 240"><defs><style>.cls-1{fill:#008fd3;}.cls-2,.cls-3,.cls-4{fill:#f0ab00;}.cls-2{opacity:0.4;}.cls-4{opacity:0.7;}</style></defs><title>281002-pictogram</title><path d="M164,220H132V201.67a56,56,0,0,1-22.48-13l-15.88,9.17-16-27.71L93.52,161a56.09,56.09,0,0,1,0-26l-15.88-9.17,16-27.71,15.88,9.17a56,56,0,0,1,22.48-13V76h16v4H136V97.38l-1.48.4a52,52,0,0,0-23.27,13.44l-1.08,1.08-15.05-8.69-12,20.79,15,8.69-.4,1.48a52.1,52.1,0,0,0,0,26.88l.4,1.48-15,8.69,12,20.79,15.05-8.69,1.08,1.08a52,52,0,0,0,23.27,13.44l1.48.4V216h24V198.62l1.48-.4a52,52,0,0,0,23.27-13.44l1.08-1.08,15.05,8.69,6-10.39,3.46,2-8,13.86-15.88-9.17a56,56,0,0,1-22.48,13Zm20-72a36,36,0,1,0-36,36A36,36,0,0,0,184,148Zm-4,0a32,32,0,1,1-32-32A32,32,0,0,1,180,148ZM80,98.5a34,34,0,0,0,13.14-7.6l11.7,6.75,10-17.32-11.7-6.75a33.93,33.93,0,0,0,0-15.17l11.7-6.75-10-17.32-11.7,6.75A34,34,0,0,0,80,33.5V20H60V33.5a34,34,0,0,0-13.14,7.6l-11.7-6.75-10,17.32,11.7,6.75a33.94,33.94,0,0,0,0,15.17l-11.7,6.75,10,17.32,11.7-6.75A34,34,0,0,0,60,98.5V112H80ZM64,95.44l-1.5-.39a30,30,0,0,1-13.9-8l-1.09-1.11L36.63,92.2l-6-10.39,10.88-6.28L41.1,74A30,30,0,0,1,41.1,58l.41-1.49L30.63,50.2l6-10.39,10.89,6.29L48.6,45a30,30,0,0,1,13.9-8l1.5-.39V24H76V36.56l1.5.39a30,30,0,0,1,13.9,8l1.09,1.11,10.89-6.29,6,10.39L98.49,56.48,98.9,58A30,30,0,0,1,98.9,74l-.41,1.49,10.88,6.28-6,10.39L92.49,85.91,91.4,87a30,30,0,0,1-13.9,8l-1.5.39V108H64ZM77.2,82.49h0A18.07,18.07,0,0,0,88,66a18.06,18.06,0,0,0-7.33-14.47,18,18,0,1,0-3.47,31ZM75.6,53.17a14.12,14.12,0,0,1,8.31,11.26,13.2,13.2,0,0,1,0,3.13A14.12,14.12,0,0,1,75.6,78.83h0a14,14,0,1,1,0-25.65Z"/><path class="cls-1" d="M204,148a56.15,56.15,0,0,0-1.52-13l15.88-9.17-8-13.86-8-13.86-15.88,9.17a56,56,0,0,0-22.48-13V76H148v36a35.77,35.77,0,0,1,18,4.84A36.26,36.26,0,0,1,179.16,130a35.87,35.87,0,0,1,0,36l27.73,16,3.46,2,8-13.86L202.48,161A56.16,56.16,0,0,0,204,148Z"/><path class="cls-2" d="M202.35,98.14l-15.88,9.17A56.1,56.1,0,0,0,176,99.5L174,103l-8,13.87A36.26,36.26,0,0,1,179.16,130l27.73-16,3.46-2Z"/><path class="cls-3" d="M202.48,161A56.15,56.15,0,0,0,204,148H184a35.77,35.77,0,0,1-4.84,18l27.73,16,3.46,2,8-13.86Z"/><path class="cls-4" d="M218.35,125.86l-8-13.86-3.46,2-27.73,16A35.77,35.77,0,0,1,184,148h20a56.15,56.15,0,0,0-1.52-13Z"/></svg>