<?xml version="1.0" encoding="utf-8"?>
<!-- Generator: Adobe Illustrator 17.0.0, SVG Export Plug-In . SVG Version: 6.00 Build 0)  -->
<!DOCTYPE svg PUBLIC "-//W3C//DTD SVG 1.1//EN" "http://www.w3.org/Graphics/SVG/1.1/DTD/svg11.dtd">
<svg version="1.1" id="Layer_1" xmlns="http://www.w3.org/2000/svg" xmlns:xlink="http://www.w3.org/1999/xlink" x="0px" y="0px"
	 width="640px" height="503.633px" viewBox="0 0 640 503.633" enable-background="new 0 0 640 503.633" xml:space="preserve">
<g id="XMLID_266_">
	<path id="XMLID_267_" fill-rule="evenodd" clip-rule="evenodd" fill="#DFDEDD" d="M640,502.377H0
		c0-176.615,143.391-320.005,320.006-320.005C496.62,182.373,640,325.762,640,502.377z"/>
	
		<rect id="XMLID_268_" x="254.028" y="259.133" fill-rule="evenodd" clip-rule="evenodd" fill="#FFFFFF" width="135.033" height="243.244"/>
	
		<rect id="XMLID_269_" x="254.028" y="259.133" fill="none" stroke="#0363A6" stroke-width="2.5115" stroke-linecap="round" stroke-linejoin="round" stroke-miterlimit="10" width="135.033" height="243.244"/>
	<path id="XMLID_270_" fill-rule="evenodd" clip-rule="evenodd" fill="#FFFFFF" d="M269.233,234.094
		c-12.044-10.048-20.39-35.889-22.195-44.893c-1.801-9.001-11.294,9.252-16.78-16.377c-5.486-25.629-6.527-32.902,1.285-30.945
		c-2.842-13.365-6.048-31.936-9.528-54.167c-3.479-22.234,24.202-75.41,46.352-64.774c10.42-15.803,51.979-32.52,88.307-12.536
		c36.349,19.98,69.266,39.811,60.063,87.925c-3.61,18.826-6.335,29.731-9.096,43.258c4.849-3.738,11.609-0.68,8.211,9.447
		c-4,11.977-18.015,48.082-20.812,36.066c-3.044,9.779-9.556,40.586-23.501,46.897c0.955,12.119,6.477,31.352-2.407,37.432
		c-8.848,6.081-38.013,22.045-49.038,27.73c-21.406-11.277-36.445-19.062-46.16-26.364
		C264.215,265.488,268.069,251.111,269.233,234.094z"/>
	
		<path id="XMLID_271_" fill="none" stroke="#134575" stroke-width="2.5115" stroke-linecap="round" stroke-linejoin="round" stroke-miterlimit="10" d="
		M269.233,234.094c-12.044-10.048-20.39-35.889-22.195-44.893c-1.801-9.001-11.294,9.252-16.78-16.377
		c-5.486-25.629-6.527-32.902,1.285-30.945c-2.842-13.365-6.048-31.936-9.528-54.167c-3.479-22.234,24.202-75.41,46.352-64.774
		c10.42-15.803,51.979-32.52,88.307-12.536c36.349,19.98,69.266,39.811,60.063,87.925c-3.61,18.826-6.335,29.731-9.096,43.258
		c4.849-3.738,11.609-0.68,8.211,9.447c-4,11.977-18.015,48.082-20.812,36.066c-3.044,9.779-9.556,40.586-23.501,46.897
		c0.955,12.119,6.477,31.352-2.407,37.432c-8.848,6.081-38.013,22.045-49.038,27.73c-21.406-11.277-36.445-19.062-46.16-26.364
		C264.215,265.488,268.069,251.111,269.233,234.094z"/>
	<path id="XMLID_272_" fill-rule="evenodd" clip-rule="evenodd" fill="#FFFFFF" d="M267.548,246.283
		c-7.001,11.429-7.125,19.782-5.514,36.921c2.113,22.522,12.441,168.617,25.141,218.638c-43.425,0.206-118.311,0.536-151.347,0.536
		c0-30.503-5.157-166.403,5.861-186.324c11.015-19.921,82.347-48.91,125.729-69.707L267.548,246.283z"/>
	
		<path id="XMLID_273_" fill="none" stroke="#134575" stroke-width="2.2401" stroke-linecap="round" stroke-linejoin="round" stroke-miterlimit="10" d="
		M267.548,246.283c-7.001,11.429-7.125,19.782-5.514,36.921c2.113,22.522,12.441,168.617,25.141,218.638
		c-43.425,0.206-118.311,0.536-151.347,0.536c0-30.503-5.157-166.403,5.861-186.324c11.015-19.921,82.347-48.91,125.729-69.707
		L267.548,246.283z"/>
	<path id="XMLID_274_" fill-rule="evenodd" clip-rule="evenodd" fill="#FFFFFF" d="M373.273,246.283
		c7.008,11.429,7.15,19.782,5.521,36.921c-2.124,22.522-12.423,168.617-25.13,218.638c43.428,0.206,118.286,0.536,151.344,0.536
		c0-30.503,5.167-166.403-5.876-186.324c-11.007-19.921-82.326-48.91-125.719-69.707L373.273,246.283z"/>
	
		<path id="XMLID_275_" fill="none" stroke="#134575" stroke-width="2.2401" stroke-linecap="round" stroke-linejoin="round" stroke-miterlimit="10" d="
		M373.273,246.283c7.008,11.429,7.15,19.782,5.521,36.921c-2.124,22.522-12.423,168.617-25.13,218.638
		c43.428,0.206,118.286,0.536,151.344,0.536c0-30.503,5.167-166.403-5.876-186.324c-11.007-19.921-82.326-48.91-125.719-69.707
		L373.273,246.283z"/>
	
		<polygon id="XMLID_276_" fill-rule="evenodd" clip-rule="evenodd" fill="#FFFFFF" stroke="#134575" stroke-miterlimit="10" points="
		320.006,299.157 283.437,342.014 308.145,366.182 283.567,477.345 288.215,501.591 352.143,501.591 356.744,478.991 
		331.933,366.41 356.744,341.798 	"/>
	
		<polygon id="XMLID_277_" fill="none" stroke="#134575" stroke-width="2.5115" stroke-linecap="round" stroke-linejoin="round" stroke-miterlimit="10" points="
		320.006,299.157 283.437,342.014 308.145,366.182 283.567,477.345 288.215,501.591 352.143,501.591 356.744,478.991 
		331.933,366.41 356.744,341.798 	"/>
	
		<line id="XMLID_278_" fill-rule="evenodd" clip-rule="evenodd" fill="#FFFFFF" x1="283.437" y1="342.186" x2="267.134" y2="334.591"/>
	
		<line id="XMLID_279_" fill="none" stroke="#134575" stroke-width="2.5115" stroke-linecap="round" stroke-linejoin="round" stroke-miterlimit="10" x1="283.437" y1="342.186" x2="267.134" y2="334.591"/>
	
		<line id="XMLID_280_" fill-rule="evenodd" clip-rule="evenodd" fill="#FFFFFF" x1="356.744" y1="342.186" x2="372.884" y2="336.008"/>
	
		<line id="XMLID_281_" fill="none" stroke="#134575" stroke-width="2.5115" stroke-linecap="round" stroke-linejoin="round" stroke-miterlimit="10" x1="356.744" y1="342.186" x2="372.884" y2="336.008"/>
	
		<line id="XMLID_282_" fill-rule="evenodd" clip-rule="evenodd" fill="#FFFFFF" x1="306.864" y1="365.85" x2="333.491" y2="365.85"/>
	
		<line id="XMLID_283_" fill="none" stroke="#134575" stroke-width="2.5115" stroke-linecap="round" stroke-linejoin="round" stroke-miterlimit="10" x1="306.864" y1="365.85" x2="333.491" y2="365.85"/>
	<polyline id="XMLID_284_" fill-rule="evenodd" clip-rule="evenodd" fill="#FFFFFF" points="242.596,259.135 218.015,354.485 
		247.268,359.142 222.704,380.583 269.049,499.813 	"/>
	
		<polyline id="XMLID_285_" fill="none" stroke="#134575" stroke-width="2.5115" stroke-linecap="round" stroke-linejoin="round" stroke-miterlimit="10" points="
		242.596,259.135 218.015,354.485 247.268,359.142 222.704,380.583 269.049,499.813 	"/>
	<polyline id="XMLID_286_" fill-rule="evenodd" clip-rule="evenodd" fill="#FFFFFF" points="397.588,259.135 422.187,354.485 
		392.916,359.142 417.48,380.583 371.149,499.813 	"/>
	
		<polyline id="XMLID_287_" fill="none" stroke="#134575" stroke-width="2.5115" stroke-linecap="round" stroke-linejoin="round" stroke-miterlimit="10" points="
		397.588,259.135 422.187,354.485 392.916,359.142 417.48,380.583 371.149,499.813 	"/>
</g>
</svg>
