<?xml version="1.0" encoding="utf-8"?>
<!-- Generator: Adobe Illustrator 17.0.0, SVG Export Plug-In . SVG Version: 6.00 Build 0)  -->
<!DOCTYPE svg PUBLIC "-//W3C//DTD SVG 1.1//EN" "http://www.w3.org/Graphics/SVG/1.1/DTD/svg11.dtd">
<svg version="1.1" id="Layer_1" xmlns="http://www.w3.org/2000/svg" xmlns:xlink="http://www.w3.org/1999/xlink" x="0px" y="0px"
	 width="640px" height="502.514px" viewBox="0 0 640 502.514" enable-background="new 0 0 640 502.514" xml:space="preserve">
<g id="XMLID_288_">
	<path id="XMLID_289_" fill-rule="evenodd" clip-rule="evenodd" fill="#DFDEDD" d="M640,501.664H0
		c0-176.613,143.386-320.001,319.998-320.001C496.61,181.662,639.996,325.05,640,501.664z"/>
	<g id="XMLID_290_">
		<path fill-rule="evenodd" clip-rule="evenodd" fill="#FFFFFF" d="M397.555,1.641l9.229-0.343
			c0.487,13.133,11.547,23.398,24.68,22.911l13.628,367.511c-13.133,0.487-23.401,11.545-22.914,24.678l-9.229,0.343
			c-0.197-5.082-4.477-9.051-9.56-8.862c-5.086,0.187-9.059,4.464-8.877,9.547l-4.914,0.181c-0.198-5.082-4.478-9.051-9.56-8.862
			c-5.083,0.189-9.059,4.464-8.877,9.547l-4.914,0.182c-0.198-5.082-4.478-9.051-9.56-8.863c-5.083,0.189-9.059,4.464-8.877,9.547
			l-4.914,0.181c-0.198-5.082-4.477-9.051-9.56-8.862c-5.083,0.189-9.059,4.464-8.877,9.547l-4.914,0.182
			c-0.195-5.08-4.478-9.051-9.56-8.863c-5.083,0.189-9.059,4.465-8.877,9.547l-4.914,0.181c-0.195-5.08-4.478-9.051-9.56-8.862
			c-5.083,0.189-9.059,4.464-8.877,9.546l-9.443,0.35c-0.487-13.133-11.543-23.398-24.679-22.913l-13.63-367.509
			c13.133-0.487,23.402-11.546,22.915-24.679l9.442-0.35c0.189,5.091,4.473,9.067,9.561,8.876c5.089-0.186,9.066-4.47,8.876-9.56
			l4.914-0.182c0.189,5.091,4.473,9.067,9.561,8.877c5.086-0.187,9.066-4.47,8.877-9.561l4.914-0.182
			c0.189,5.091,4.473,9.067,9.561,8.877c5.086-0.188,9.066-4.47,8.877-9.561l4.914-0.182c0.186,5.089,4.473,9.067,9.559,8.88
			c5.088-0.191,9.067-4.473,8.877-9.561l4.914-0.182c0.188,5.086,4.472,9.062,9.561,8.877c5.088-0.191,9.064-4.475,8.876-9.561
			l4.914-0.182c0.187,5.086,4.472,9.062,9.561,8.876C393.766,11.01,397.742,6.727,397.555,1.641z"/>
		
			<path fill="none" stroke="#134575" stroke-width="2.5961" stroke-linecap="round" stroke-linejoin="round" stroke-miterlimit="10" d="
			M397.555,1.641l9.229-0.343c0.487,13.133,11.547,23.398,24.68,22.911l13.628,367.511c-13.133,0.487-23.401,11.545-22.914,24.678
			l-9.229,0.343c-0.197-5.082-4.477-9.051-9.56-8.862c-5.086,0.187-9.059,4.464-8.877,9.547l-4.914,0.181
			c-0.198-5.082-4.478-9.051-9.56-8.862c-5.083,0.189-9.059,4.464-8.877,9.547l-4.914,0.182c-0.198-5.082-4.478-9.051-9.56-8.863
			c-5.083,0.189-9.059,4.464-8.877,9.547l-4.914,0.181c-0.198-5.082-4.477-9.051-9.56-8.862c-5.083,0.189-9.059,4.464-8.877,9.547
			l-4.914,0.182c-0.195-5.08-4.478-9.051-9.56-8.863c-5.083,0.189-9.059,4.465-8.877,9.547l-4.914,0.181
			c-0.195-5.08-4.478-9.051-9.56-8.862c-5.083,0.189-9.059,4.464-8.877,9.546l-9.443,0.35
			c-0.487-13.133-11.543-23.398-24.679-22.913l-13.63-367.509c13.133-0.487,23.402-11.546,22.915-24.679l9.442-0.35
			c0.189,5.091,4.473,9.067,9.561,8.876c5.089-0.186,9.066-4.47,8.876-9.56l4.914-0.182c0.189,5.091,4.473,9.067,9.561,8.877
			c5.086-0.187,9.066-4.47,8.877-9.561l4.914-0.182c0.189,5.091,4.473,9.067,9.561,8.877c5.086-0.188,9.066-4.47,8.877-9.561
			l4.914-0.182c0.186,5.089,4.473,9.067,9.559,8.88c5.088-0.191,9.067-4.473,8.877-9.561l4.914-0.182
			c0.188,5.086,4.472,9.062,9.561,8.877c5.088-0.191,9.064-4.475,8.876-9.561l4.914-0.182c0.187,5.086,4.472,9.062,9.561,8.876
			C393.766,11.01,397.742,6.727,397.555,1.641z"/>
		<path fill-rule="evenodd" clip-rule="evenodd" fill="#FFFFFF" d="M398.055,383.311c11.174-0.413,19.894-9.807,19.48-20.979
			c-2.281-61.5-9.115-245.787-11.397-307.286c-0.413-11.174-9.807-19.894-20.977-19.48c-28.389,1.055-79.746,2.958-108.136,4.012
			c-11.174,0.413-19.894,9.807-19.48,20.977c2.282,61.499,9.116,245.787,11.397,307.287c0.414,11.172,9.807,19.893,20.978,19.478
			C318.308,386.268,369.666,384.364,398.055,383.311z"/>
		
			<path fill="none" stroke="#134575" stroke-width="2.049" stroke-linecap="round" stroke-linejoin="round" stroke-miterlimit="10" d="
			M398.055,383.311c11.174-0.413,19.894-9.807,19.48-20.979c-2.281-61.5-9.115-245.787-11.397-307.286
			c-0.413-11.174-9.807-19.894-20.977-19.48c-28.389,1.055-79.746,2.958-108.136,4.012c-11.174,0.413-19.894,9.807-19.48,20.977
			c2.282,61.499,9.116,245.787,11.397,307.287c0.414,11.172,9.807,19.893,20.978,19.478
			C318.308,386.268,369.666,384.364,398.055,383.311z"/>
		
			<line fill="none" stroke="#134575" stroke-width="2.5961" stroke-linejoin="round" stroke-miterlimit="10" x1="407.219" y1="84.13" x2="258.622" y2="89.642"/>
		
			<line fill="none" stroke="#134575" stroke-width="2.5961" stroke-linejoin="round" stroke-miterlimit="10" x1="416.421" y1="332.304" x2="267.827" y2="337.815"/>
		<path fill="#134575" d="M359.485,131.2l13.937-4.876l-14.259-3.799L359.485,131.2z M350.335,134.393l-0.531-14.344l-7.47-1.995
			l-0.456-12.287l45.222,14.619l0.29,7.784l0.114,3.063l-44.013,18.022l-0.458-12.321L350.335,134.393z"/>
		<path fill="#134575" d="M367.793,178.133c4.003-0.149,7.004-1.037,9.001-2.665c1.993-1.63,2.939-3.935,2.826-6.917l-0.116-3.189
			l-26.144,0.971l0.129,3.461c0.107,2.842,1.208,4.99,3.308,6.446c2.099,1.457,5.183,2.11,9.248,1.957L367.793,178.133z
			 M386.516,179.048c-1.723,3.226-4.183,5.793-7.386,7.701c-3.204,1.911-6.857,2.942-10.964,3.091l-1.684,0.063
			c-4.11,0.153-7.824-0.601-11.148-2.254c-3.325-1.658-5.965-4.017-7.918-7.074c-1.957-3.056-3.006-6.537-3.151-10.441
			l-0.371-10.021l-0.18-4.872l44.621-1.654l0.421,11.432l0.118,3.186C389.026,172.209,388.236,175.825,386.516,179.048z"/>
		<polygon fill="#134575" points="347.137,247.592 346.711,236.13 355.139,235.818 377.858,236.079 346.374,226.968 
			346.095,219.489 376.82,208.07 354.183,210.043 345.758,210.357 345.333,198.894 389.954,197.24 390.309,206.894 390.51,212.289 
			361.252,222.672 391.201,230.859 391.758,245.937 		"/>
		
			<rect x="347.715" y="257.04" transform="matrix(-0.9993 0.0371 -0.0371 -0.9993 749.5638 511.5638)" fill="#134575" width="44.652" height="11.378"/>
		<polygon fill="#134575" points="385.008,313.819 384.514,300.518 349.15,301.83 348.724,290.368 384.088,289.056 383.607,276.093 
			392.865,275.75 393.771,300.175 394.262,313.475 		"/>
		<path fill="#134575" d="M316.131,175.507c2.124-1.481,3.137-3.517,3.04-6.112c-0.197-5.373-4.538-7.902-13.015-7.588l-1.687,0.062
			c-4.126,0.152-7.265,0.951-9.41,2.388c-2.143,1.442-3.169,3.512-3.067,6.21c0.095,2.574,1.279,4.512,3.559,5.819
			c2.279,1.306,5.451,1.885,9.519,1.734l1.684-0.063C310.879,177.804,314.007,176.987,316.131,175.507z M293.686,187.617
			c-3.402-1.551-6.055-3.787-7.95-6.702c-1.898-2.917-2.921-6.288-3.062-10.106c-0.144-3.884,0.625-7.353,2.299-10.412
			c1.679-3.06,4.157-5.485,7.433-7.274c3.281-1.79,7.155-2.768,11.63-2.933l1.625-0.058c4.476-0.168,8.413,0.522,11.814,2.059
			c3.402,1.542,6.059,3.772,7.965,6.688c1.912,2.915,2.935,6.306,3.079,10.166c0.14,3.821-0.629,7.262-2.316,10.322
			c-1.687,3.06-4.17,5.494-7.448,7.302c-3.28,1.811-7.156,2.8-11.63,2.964l-1.622,0.061
			C301.028,189.862,297.088,189.169,293.686,187.617z"/>
		<polygon fill="#134575" points="285.297,225.012 310.705,209.156 284.747,210.118 284.322,198.687 328.943,197.031 
			329.368,208.464 303.993,224.289 329.918,223.327 330.34,234.727 285.719,236.382 		"/>
		<polygon fill="#134575" points="321.858,255.922 313.799,256.221 314.415,272.801 305.527,273.13 304.911,256.55 295.719,256.892 
			296.445,276.535 287.22,276.877 286.337,253.035 286.069,245.802 330.69,244.148 331.115,255.579 331.849,275.346 
			322.591,275.688 		"/>
		<path fill="#134575" d="M389.965,353.459c-0.453,0.498-0.662,1.168-0.63,2.006c0.031,0.847,0.295,1.504,0.791,1.968
			c0.495,0.464,1.144,0.682,1.945,0.651c0.796-0.028,1.419-0.293,1.873-0.793c0.457-0.499,0.668-1.173,0.638-2.02
			c-0.032-0.83-0.296-1.48-0.789-1.948c-0.496-0.469-1.145-0.688-1.949-0.66C391.042,352.694,390.415,352.959,389.965,353.459z
			 M393.962,365.617c0.371-0.451,0.543-1.056,0.516-1.813c-0.03-0.758-0.248-1.357-0.655-1.796
			c-0.411-0.441-0.961-0.649-1.655-0.623c-0.694,0.026-1.226,0.271-1.597,0.736c-0.371,0.465-0.543,1.08-0.514,1.847
			c0.027,0.747,0.244,1.335,0.654,1.763c0.406,0.426,0.96,0.628,1.654,0.602C393.058,366.307,393.591,366.069,393.962,365.617z
			 M386.161,358.094c-0.574-0.794-0.883-1.725-0.92-2.788c-0.048-1.218,0.202-2.262,0.741-3.135
			c0.542-0.873,1.307-1.544,2.297-2.014c0.989-0.47,2.136-0.729,3.443-0.778c1.298-0.048,2.461,0.125,3.492,0.521
			c1.03,0.395,1.853,1.008,2.465,1.838c0.615,0.831,0.943,1.854,0.988,3.071c0.037,1.063-0.201,2.016-0.721,2.855
			c-0.518,0.841-1.253,1.508-2.199,2.004c0.856,0.421,1.532,0.991,2.028,1.713c0.496,0.722,0.761,1.552,0.797,2.489
			c0.042,1.162-0.188,2.167-0.689,3.016c-0.498,0.851-1.219,1.505-2.153,1.97c-0.934,0.464-2.014,0.719-3.241,0.763
			c-1.236,0.045-2.335-0.128-3.303-0.521c-0.967-0.393-1.732-0.994-2.294-1.803c-0.562-0.809-0.865-1.796-0.91-2.959
			c-0.032-0.936,0.168-1.787,0.611-2.547c0.442-0.76,1.073-1.382,1.895-1.863C387.511,359.499,386.738,358.89,386.161,358.094z"/>
		<path fill="#134575" d="M374.265,353.777c-0.399,0.313-0.702,0.734-0.91,1.264c-0.205,0.532-0.294,1.127-0.271,1.784
			c0.027,0.686,0.164,1.288,0.413,1.806c0.248,0.519,0.591,0.914,1.026,1.187c0.435,0.273,0.936,0.399,1.503,0.377
			c0.632-0.023,1.183-0.203,1.652-0.542c0.472-0.337,0.814-0.755,1.031-1.25l-0.046-1.23c-0.049-1.316-0.339-2.303-0.869-2.96
			s-1.242-0.97-2.133-0.936C375.127,353.297,374.664,353.464,374.265,353.777z M371.772,362.737
			c-0.857-0.563-1.522-1.345-1.988-2.343c-0.466-0.998-0.722-2.128-0.767-3.389c-0.048-1.28,0.186-2.445,0.701-3.493
			c0.518-1.047,1.275-1.885,2.271-2.514c0.997-0.628,2.153-0.966,3.467-1.016c1.388-0.052,2.625,0.228,3.707,0.837
			c1.085,0.611,1.94,1.499,2.57,2.667c0.63,1.168,0.976,2.537,1.032,4.105l0.059,1.569c0.078,2.144-0.269,4.046-1.041,5.705
			c-0.772,1.658-1.911,2.958-3.409,3.904c-1.501,0.944-3.26,1.453-5.277,1.529l-0.595,0.022l-0.127-3.368l0.243-0.009
			c1.777-0.065,3.2-0.548,4.265-1.451c1.068-0.901,1.686-2.145,1.853-3.73c-0.466,0.524-1.028,0.94-1.686,1.247
			c-0.655,0.31-1.391,0.477-2.201,0.508C373.658,363.561,372.633,363.3,371.772,362.737z"/>
		<polygon fill="#134575" points="360.621,350.803 364.922,350.644 357.984,367.323 367.664,366.964 367.786,370.25 
			353.807,370.769 353.724,368.498 		"/>
		<path fill="#134575" d="M350.616,351.174l0.105,2.799l-6.121,6.968c-0.861,1.035-1.474,1.904-1.83,2.608
			c-0.36,0.703-0.528,1.334-0.506,1.893c0.033,0.866,0.273,1.532,0.718,1.998c0.445,0.466,1.059,0.684,1.843,0.655
			c0.561-0.019,1.04-0.178,1.441-0.471c0.398-0.296,0.697-0.693,0.896-1.191c0.196-0.5,0.286-1.059,0.262-1.682l4.084-0.151
			c0.042,1.198-0.201,2.305-0.732,3.323c-0.53,1.017-1.309,1.835-2.333,2.456c-1.024,0.62-2.216,0.956-3.575,1.007
			c-1.388,0.052-2.573-0.128-3.555-0.539c-0.982-0.411-1.735-1.027-2.261-1.851c-0.529-0.825-0.812-1.827-0.856-3.008
			c-0.033-0.857,0.11-1.692,0.429-2.507c0.315-0.816,0.772-1.634,1.37-2.455c0.596-0.822,1.38-1.773,2.352-2.855l3.119-3.514
			l-8.276,0.306l-0.122-3.285L350.616,351.174z"/>
		<path fill="#134575" d="M326.483,355.549c-0.399,0.313-0.702,0.734-0.907,1.266c-0.208,0.53-0.297,1.125-0.275,1.783
			c0.027,0.686,0.164,1.288,0.413,1.806c0.249,0.519,0.591,0.914,1.026,1.188c0.435,0.273,0.936,0.399,1.503,0.377
			c0.632-0.022,1.182-0.203,1.651-0.542c0.472-0.337,0.814-0.755,1.031-1.25l-0.046-1.23c-0.048-1.316-0.339-2.303-0.869-2.96
			c-0.53-0.657-1.239-0.968-2.133-0.936C327.348,355.07,326.882,355.236,326.483,355.549z M323.993,364.51
			c-0.861-0.564-1.526-1.346-1.989-2.343c-0.466-0.998-0.725-2.13-0.77-3.391c-0.047-1.28,0.186-2.445,0.704-3.492
			c0.515-1.049,1.272-1.887,2.268-2.515c0.997-0.628,2.154-0.966,3.471-1.014c1.388-0.052,2.621,0.226,3.707,0.837
			c1.082,0.609,1.94,1.499,2.57,2.667c0.63,1.168,0.973,2.535,1.029,4.103l0.06,1.569c0.08,2.145-0.269,4.046-1.041,5.704
			c-0.772,1.658-1.911,2.958-3.409,3.904c-1.498,0.945-3.257,1.455-5.277,1.529l-0.596,0.022l-0.127-3.367l0.246-0.008
			c1.774-0.067,3.197-0.55,4.265-1.451c1.068-0.902,1.683-2.147,1.853-3.731c-0.469,0.522-1.031,0.938-1.689,1.246
			c-0.655,0.31-1.388,0.479-2.201,0.508C325.876,365.332,324.851,365.072,323.993,364.51z"/>
		<path fill="#134575" d="M318.762,352.355l0.105,2.8l-6.12,6.968c-0.865,1.034-1.474,1.904-1.83,2.608
			c-0.359,0.703-0.528,1.334-0.506,1.893c0.033,0.866,0.269,1.53,0.718,1.998c0.446,0.466,1.059,0.684,1.843,0.655
			c0.559-0.021,1.04-0.178,1.438-0.473c0.401-0.294,0.699-0.691,0.899-1.19c0.196-0.5,0.284-1.061,0.262-1.682l4.084-0.15
			c0.043,1.198-0.201,2.305-0.731,3.323c-0.53,1.018-1.309,1.835-2.333,2.456c-1.025,0.62-2.217,0.956-3.576,1.007
			c-1.391,0.05-2.573-0.128-3.555-0.539c-0.982-0.411-1.734-1.028-2.264-1.854c-0.526-0.824-0.81-1.825-0.856-3.007
			c-0.03-0.856,0.113-1.691,0.428-2.507c0.318-0.815,0.775-1.633,1.374-2.453c0.596-0.822,1.38-1.773,2.349-2.858l3.122-3.513
			l-8.276,0.306l-0.122-3.285L318.762,352.355z"/>
		<path fill="#134575" d="M294.803,368.889c0.465,0.681,1.134,1.007,2,0.975c0.863-0.033,1.503-0.407,1.921-1.121
			c0.415-0.716,0.592-1.88,0.532-3.494l-0.168-4.582c-0.062-1.633-0.327-2.79-0.801-3.478c-0.47-0.686-1.146-1.014-2.017-0.98
			c-0.866,0.032-1.503,0.407-1.908,1.127c-0.408,0.718-0.58,1.895-0.521,3.525l0.171,4.584
			C294.069,367.057,294.335,368.207,294.803,368.889z M290.429,356.812c0.502-1.269,1.24-2.222,2.216-2.858
			c0.973-0.637,2.14-0.98,3.5-1.031c1.363-0.05,2.556,0.206,3.583,0.767c1.03,0.564,1.845,1.458,2.451,2.686
			c0.603,1.226,0.941,2.787,1.011,4.679l0.131,3.489c0.07,1.893-0.15,3.471-0.657,4.735c-0.508,1.265-1.251,2.213-2.229,2.846
			c-0.978,0.632-2.149,0.973-3.508,1.024c-1.363,0.05-2.553-0.203-3.578-0.762c-1.021-0.557-1.834-1.448-2.435-2.672
			c-0.6-1.224-0.936-2.781-1.005-4.674l-0.131-3.489C289.707,359.66,289.923,358.079,290.429,356.812z"/>
		<path fill="#134575" d="M287.587,69.496c0.449-0.499,0.659-1.169,0.627-2.007c-0.031-0.846-0.295-1.504-0.79-1.967
			c-0.496-0.464-1.145-0.682-1.946-0.651c-0.792,0.028-1.418,0.292-1.872,0.793c-0.457,0.499-0.668,1.172-0.638,2.021
			c0.032,0.83,0.296,1.481,0.793,1.949c0.493,0.466,1.144,0.69,1.945,0.659S287.133,69.996,287.587,69.496z M283.585,57.337
			c-0.371,0.451-0.543,1.057-0.513,1.814c0.026,0.758,0.244,1.357,0.656,1.796c0.407,0.441,0.957,0.648,1.654,0.625
			c0.694-0.027,1.227-0.273,1.597-0.737c0.372-0.467,0.54-1.083,0.515-1.849c-0.031-0.749-0.248-1.335-0.657-1.764
			c-0.407-0.425-0.96-0.628-1.654-0.601C284.489,56.648,283.957,56.886,283.585,57.337z M291.386,64.86
			c0.574,0.794,0.882,1.726,0.923,2.79c0.046,1.215-0.204,2.258-0.743,3.133c-0.542,0.872-1.307,1.542-2.297,2.013
			c-0.986,0.472-2.136,0.729-3.443,0.779c-1.299,0.05-2.461-0.126-3.493-0.519c-1.03-0.396-1.853-1.009-2.464-1.839
			c-0.611-0.83-0.942-1.855-0.988-3.07c-0.038-1.062,0.201-2.015,0.723-2.858c0.517-0.841,1.252-1.507,2.199-2.004
			c-0.853-0.419-1.529-0.99-2.025-1.711c-0.499-0.723-0.765-1.552-0.798-2.487c-0.043-1.166,0.186-2.171,0.687-3.018
			c0.502-0.85,1.22-1.508,2.154-1.972c0.937-0.463,2.017-0.716,3.24-0.761c1.236-0.047,2.335,0.128,3.303,0.52
			c0.966,0.394,1.731,0.996,2.293,1.805c0.562,0.809,0.866,1.795,0.911,2.957c0.034,0.94-0.168,1.787-0.611,2.547
			c-0.441,0.765-1.074,1.384-1.894,1.868C290.037,63.454,290.809,64.064,291.386,64.86z"/>
		<path fill="#134575" d="M303.286,69.179c0.398-0.312,0.699-0.737,0.907-1.267c0.205-0.532,0.296-1.123,0.272-1.784
			c-0.024-0.685-0.165-1.286-0.414-1.805c-0.249-0.518-0.59-0.916-1.026-1.187c-0.432-0.273-0.933-0.397-1.502-0.38
			c-0.629,0.026-1.179,0.205-1.652,0.543c-0.469,0.339-0.814,0.756-1.031,1.249l0.045,1.231c0.053,1.316,0.34,2.301,0.87,2.959
			c0.529,0.658,1.241,0.971,2.133,0.935C302.42,69.658,302.887,69.491,303.286,69.179z M305.776,60.216
			c0.861,0.564,1.522,1.344,1.988,2.344c0.466,0.999,0.721,2.128,0.768,3.388c0.047,1.28-0.186,2.445-0.701,3.493
			c-0.519,1.05-1.275,1.886-2.272,2.514c-0.996,0.628-2.155,0.969-3.469,1.019c-1.388,0.051-2.624-0.229-3.707-0.838
			c-1.083-0.609-1.939-1.5-2.57-2.667c-0.629-1.17-0.973-2.535-1.033-4.104l-0.059-1.569c-0.077-2.145,0.269-4.047,1.041-5.704
			c0.777-1.658,1.913-2.961,3.409-3.904c1.502-0.945,3.261-1.455,5.28-1.529l0.596-0.023l0.123,3.366l-0.244,0.012
			c-1.776,0.063-3.196,0.548-4.265,1.451c-1.068,0.9-1.685,2.144-1.852,3.73c0.469-0.521,1.032-0.939,1.687-1.249
			c0.656-0.305,1.391-0.476,2.2-0.507C303.888,59.395,304.915,59.652,305.776,60.216z"/>
		<polygon fill="#134575" points="316.927,72.151 312.628,72.313 319.564,55.632 309.884,55.989 309.762,52.705 323.74,52.186 
			323.827,54.457 		"/>
		<path fill="#134575" d="M326.932,71.781l-0.105-2.8l6.12-6.966c0.866-1.035,1.474-1.904,1.834-2.608
			c0.357-0.705,0.526-1.336,0.503-1.895c-0.033-0.867-0.269-1.531-0.718-1.998c-0.446-0.465-1.058-0.685-1.844-0.653
			c-0.557,0.019-1.039,0.175-1.437,0.471c-0.401,0.295-0.7,0.692-0.899,1.191c-0.196,0.5-0.284,1.061-0.261,1.681l-4.081,0.152
			c-0.046-1.199,0.197-2.307,0.727-3.322c0.531-1.019,1.309-1.835,2.334-2.457c1.025-0.621,2.217-0.957,3.575-1.007
			c1.391-0.049,2.572,0.129,3.554,0.54c0.982,0.411,1.735,1.026,2.264,1.853c0.527,0.822,0.813,1.827,0.857,3.005
			c0.03,0.857-0.113,1.691-0.43,2.51c-0.318,0.814-0.774,1.631-1.374,2.453c-0.595,0.82-1.379,1.77-2.347,2.855l-3.122,3.513
			l8.276-0.307l0.121,3.288L326.932,71.781z"/>
		<path fill="#134575" d="M351.065,67.404c0.399-0.312,0.701-0.732,0.906-1.263c0.208-0.53,0.298-1.126,0.275-1.783
			c-0.027-0.687-0.163-1.29-0.412-1.808c-0.249-0.518-0.592-0.913-1.026-1.187c-0.434-0.274-0.936-0.398-1.503-0.376
			c-0.633,0.023-1.183,0.204-1.652,0.543c-0.471,0.335-0.813,0.753-1.03,1.246l0.045,1.231c0.048,1.317,0.339,2.304,0.868,2.963
			c0.531,0.655,1.243,0.967,2.134,0.935C350.2,67.884,350.665,67.72,351.065,67.404z M353.557,58.447
			c0.858,0.562,1.523,1.344,1.988,2.344c0.467,0.996,0.723,2.125,0.768,3.388c0.047,1.281-0.187,2.445-0.704,3.492
			c-0.514,1.048-1.272,1.887-2.268,2.515c-0.996,0.628-2.153,0.966-3.467,1.016c-1.388,0.051-2.624-0.229-3.707-0.838
			c-1.086-0.611-1.941-1.497-2.569-2.667c-0.631-1.167-0.977-2.537-1.033-4.104l-0.059-1.569c-0.081-2.144,0.269-4.047,1.041-5.704
			c0.773-1.66,1.911-2.958,3.409-3.904c1.499-0.946,3.261-1.455,5.277-1.531l0.595-0.02l0.126,3.367l-0.245,0.007
			c-1.775,0.068-3.197,0.551-4.265,1.451c-1.064,0.902-1.684,2.148-1.849,3.731c0.465-0.523,1.027-0.938,1.685-1.246
			c0.655-0.31,1.389-0.481,2.201-0.51C351.671,57.622,352.697,57.883,353.557,58.447z"/>
		<path fill="#134575" d="M358.786,70.598l-0.101-2.799l6.116-6.968c0.866-1.035,1.474-1.905,1.834-2.608
			c0.355-0.702,0.524-1.333,0.503-1.895c-0.031-0.862-0.27-1.528-0.715-1.996c-0.449-0.467-1.063-0.683-1.847-0.655
			c-0.557,0.019-1.04,0.179-1.437,0.472c-0.402,0.295-0.701,0.692-0.9,1.19c-0.196,0.5-0.284,1.062-0.261,1.681l-4.083,0.155
			c-0.046-1.199,0.199-2.309,0.729-3.325c0.529-1.016,1.309-1.835,2.334-2.456c1.023-0.618,2.215-0.953,3.578-1.005
			c1.388-0.051,2.572,0.129,3.551,0.538c0.982,0.411,1.736,1.026,2.264,1.854c0.527,0.822,0.813,1.826,0.856,3.008
			c0.032,0.854-0.11,1.693-0.428,2.506c-0.318,0.814-0.774,1.631-1.371,2.455c-0.598,0.818-1.38,1.773-2.351,2.854l-3.119,3.514
			l8.272-0.306l0.122,3.285L358.786,70.598z"/>
		<path fill="#134575" d="M382.747,54.068c-0.468-0.682-1.135-1.011-1.999-0.977c-0.867,0.033-1.507,0.406-1.924,1.119
			c-0.414,0.715-0.592,1.881-0.532,3.494l0.169,4.581c0.061,1.634,0.326,2.793,0.801,3.478c0.47,0.687,1.145,1.016,2.019,0.983
			c0.863-0.034,1.501-0.41,1.909-1.127c0.405-0.72,0.58-1.895,0.517-3.526l-0.167-4.584
			C383.479,55.896,383.212,54.749,382.747,54.068z M387.123,66.143c-0.507,1.27-1.245,2.224-2.217,2.86
			c-0.976,0.635-2.142,0.976-3.503,1.029c-1.362,0.048-2.556-0.205-3.582-0.768c-1.026-0.563-1.844-1.458-2.448-2.683
			c-0.605-1.23-0.944-2.789-1.013-4.682l-0.13-3.49c-0.069-1.892,0.149-3.471,0.658-4.736s1.251-2.212,2.23-2.846
			c0.977-0.63,2.149-0.973,3.51-1.021c1.36-0.053,2.553,0.204,3.574,0.76s1.834,1.449,2.434,2.672
			c0.601,1.223,0.936,2.781,1.005,4.673l0.131,3.49C387.84,63.295,387.625,64.875,387.123,66.143z"/>
	</g>
	<g id="XMLID_291_">
		<path fill-rule="evenodd" clip-rule="evenodd" fill="#FFFFFF" d="M295.722,25.563l8.919-2.397
			c3.41,12.692,16.485,20.226,29.176,16.816l95.422,355.169c-12.692,3.41-20.229,16.483-16.819,29.175l-8.919,2.397
			c-1.328-4.909-6.387-7.821-11.299-6.501c-4.915,1.319-7.832,6.376-6.519,11.289l-4.749,1.275
			c-1.328-4.909-6.387-7.821-11.299-6.501c-4.912,1.32-7.832,6.376-6.519,11.289l-4.749,1.275
			c-1.329-4.909-6.387-7.821-11.299-6.501c-4.912,1.32-7.832,6.376-6.519,11.289l-4.749,1.275
			c-1.329-4.909-6.387-7.821-11.299-6.502c-4.912,1.32-7.832,6.376-6.519,11.289l-4.749,1.275
			c-1.325-4.908-6.387-7.821-11.299-6.502c-4.912,1.32-7.832,6.376-6.519,11.289l-4.749,1.275
			c-1.325-4.908-6.387-7.821-11.299-6.501c-4.912,1.32-7.831,6.376-6.519,11.289l-9.125,2.452
			c-3.41-12.692-16.481-20.227-29.176-16.818L139.125,92.291c12.692-3.41,20.229-16.484,16.819-29.176l9.125-2.452
			c1.322,4.92,6.387,7.838,11.303,6.515c4.919-1.319,7.837-6.383,6.515-11.303l4.749-1.276c1.322,4.92,6.387,7.838,11.303,6.515
			c4.915-1.32,7.837-6.383,6.515-11.303l4.749-1.276c1.322,4.92,6.387,7.839,11.303,6.515c4.915-1.32,7.837-6.383,6.515-11.303
			l4.749-1.276c1.319,4.919,6.387,7.839,11.302,6.519c4.916-1.323,7.838-6.387,6.515-11.303l4.749-1.275
			c1.32,4.915,6.384,7.834,11.303,6.515c4.917-1.323,7.835-6.388,6.515-11.303l4.749-1.276c1.32,4.915,6.384,7.834,11.303,6.515
			C294.123,35.543,297.041,30.479,295.722,25.563z"/>
		
			<path fill="none" stroke="#134575" stroke-width="2.5961" stroke-linecap="round" stroke-linejoin="round" stroke-miterlimit="10" d="
			M295.722,25.563l8.919-2.397c3.41,12.692,16.485,20.226,29.176,16.816l95.422,355.169c-12.692,3.41-20.229,16.483-16.819,29.175
			l-8.919,2.397c-1.328-4.909-6.387-7.821-11.299-6.501c-4.915,1.319-7.832,6.376-6.519,11.289l-4.749,1.275
			c-1.328-4.909-6.387-7.821-11.299-6.501c-4.912,1.32-7.832,6.376-6.519,11.289l-4.749,1.275
			c-1.329-4.909-6.387-7.821-11.299-6.501c-4.912,1.32-7.832,6.376-6.519,11.289l-4.749,1.275
			c-1.329-4.909-6.387-7.821-11.299-6.502c-4.912,1.32-7.832,6.376-6.519,11.289l-4.749,1.275
			c-1.325-4.908-6.387-7.821-11.299-6.502c-4.912,1.32-7.832,6.376-6.519,11.289l-4.749,1.275
			c-1.325-4.908-6.387-7.821-11.299-6.501c-4.912,1.32-7.831,6.376-6.519,11.289l-9.125,2.452
			c-3.41-12.692-16.481-20.227-29.176-16.818L139.125,92.291c12.692-3.41,20.229-16.484,16.819-29.176l9.125-2.452
			c1.322,4.92,6.387,7.838,11.303,6.515c4.919-1.319,7.837-6.383,6.515-11.303l4.749-1.276c1.322,4.92,6.387,7.838,11.303,6.515
			c4.915-1.32,7.837-6.383,6.515-11.303l4.749-1.276c1.322,4.92,6.387,7.839,11.303,6.515c4.915-1.32,7.837-6.383,6.515-11.303
			l4.749-1.276c1.319,4.919,6.387,7.839,11.302,6.519c4.916-1.323,7.838-6.387,6.515-11.303l4.749-1.275
			c1.32,4.915,6.384,7.834,11.303,6.515c4.917-1.323,7.835-6.388,6.515-11.303l4.749-1.276c1.32,4.915,6.384,7.834,11.303,6.515
			C294.123,35.543,297.041,30.479,295.722,25.563z"/>
		<path fill-rule="evenodd" clip-rule="evenodd" fill="#FFFFFF" d="M381.512,397.467c10.799-2.9,17.199-14.005,14.299-24.802
			c-15.968-59.435-63.818-237.532-79.787-296.966c-2.9-10.799-14.005-17.199-24.8-14.298
			c-27.436,7.373-77.068,20.706-104.504,28.079c-10.799,2.9-17.199,14.005-14.298,24.801
			c15.969,59.433,63.819,237.532,79.787,296.967c2.9,10.797,14.005,17.198,24.801,14.297
			C304.443,418.173,354.077,404.838,381.512,397.467z"/>
		
			<path fill="none" stroke="#134575" stroke-width="2.049" stroke-linecap="round" stroke-linejoin="round" stroke-miterlimit="10" d="
			M381.512,397.467c10.799-2.9,17.199-14.005,14.299-24.802c-15.968-59.435-63.818-237.532-79.787-296.966
			c-2.9-10.799-14.005-17.199-24.8-14.298c-27.436,7.373-77.068,20.706-104.504,28.079c-10.799,2.9-17.199,14.005-14.298,24.801
			c15.969,59.433,63.819,237.532,79.787,296.967c2.9,10.797,14.005,17.198,24.801,14.297
			C304.443,418.173,354.077,404.838,381.512,397.467z"/>
		
			<line fill="none" stroke="#134575" stroke-width="2.5961" stroke-linejoin="round" stroke-miterlimit="10" x1="323.578" y1="103.806" x2="179.971" y2="142.389"/>
		
			<line fill="none" stroke="#134575" stroke-width="2.5961" stroke-linejoin="round" stroke-miterlimit="10" x1="388.013" y1="343.646" x2="244.41" y2="382.228"/>
		<path fill="#134575" d="M287.572,160.353l12.495-7.867l-14.747-0.516L287.572,160.353z M279.366,165.511l-3.724-13.862
			l-7.726-0.275l-3.19-11.875l47.345,4.142l2.023,7.523l0.796,2.96l-38.872,27.404l-3.2-11.907L279.366,165.511z"/>
		<path fill="#134575" d="M306.159,204.242c3.868-1.04,6.595-2.576,8.177-4.609c1.579-2.035,1.985-4.493,1.208-7.374l-0.826-3.082
			l-25.265,6.79l0.899,3.345c0.739,2.746,2.293,4.594,4.665,5.544c2.372,0.951,5.523,0.898,9.452-0.159L306.159,204.242z
			 M324.612,200.95c-0.958,3.53-2.783,6.581-5.478,9.157c-2.696,2.579-6.026,4.4-9.997,5.464l-1.627,0.438
			c-3.971,1.067-7.761,1.163-11.37,0.295c-3.611-0.873-6.712-2.582-9.299-5.125c-2.591-2.541-4.391-5.7-5.405-9.473l-2.601-9.684
			l-1.264-4.709l43.122-11.585l2.965,11.049l0.827,3.079C325.53,193.724,325.57,197.424,324.612,200.95z"/>
		<polygon fill="#134575" points="301.549,276.561 298.573,265.484 306.718,263.296 328.92,258.474 296.196,256.629 
			294.253,249.402 321.648,231.405 300.025,238.387 291.883,240.577 288.907,229.498 332.029,217.913 334.533,227.244 
			335.935,232.458 309.737,249.117 340.759,250.403 344.672,264.976 		"/>
		
			<rect x="304.931" y="280.507" transform="matrix(-0.9658 0.2595 -0.2595 -0.9658 717.5635 477.6794)" fill="#134575" width="44.652" height="11.378"/>
		<polygon fill="#134575" points="353.264,332.649 349.809,319.794 315.633,328.977 312.657,317.901 346.833,308.718 
			343.467,296.19 352.413,293.787 358.756,317.392 362.207,330.245 		"/>
		<path fill="#134575" d="M255.216,213.229c1.739-1.918,2.271-4.129,1.597-6.637c-1.393-5.193-6.189-6.688-14.382-4.488
			l-1.631,0.437c-3.987,1.071-6.868,2.551-8.638,4.431c-1.767,1.885-2.304,4.131-1.602,6.738c0.668,2.488,2.256,4.112,4.77,4.876
			c2.514,0.764,5.734,0.619,9.666-0.437l1.627-0.438C250.611,216.642,253.478,215.147,255.216,213.229z M236.046,230.05
			c-3.662-0.752-6.748-2.338-9.247-4.755c-2.502-2.419-4.252-5.476-5.243-9.166c-1.008-3.753-1.034-7.306-0.086-10.662
			c0.952-3.358,2.826-6.275,5.62-8.751c2.798-2.478,6.356-4.297,10.68-5.458l1.571-0.42c4.325-1.164,8.317-1.372,11.976-0.634
			c3.661,0.743,6.748,2.323,9.258,4.739c2.515,2.414,4.27,5.49,5.274,9.22c0.99,3.693,1.009,7.219,0.049,10.578
			c-0.961,3.36-2.837,6.287-5.628,8.782c-2.793,2.498-6.349,4.328-10.673,5.488l-1.568,0.422
			C243.703,230.597,239.709,230.802,236.046,230.05z"/>
		<polygon fill="#134575" points="236.227,268.373 257.448,247.24 232.362,253.979 229.392,242.932 272.515,231.345 
			275.484,242.394 254.288,263.49 279.343,256.758 282.302,267.776 239.179,279.361 		"/>
		<polygon fill="#134575" points="278.771,290.33 270.983,292.423 275.289,308.446 266.699,310.753 262.393,294.73 253.51,297.118 
			258.608,316.102 249.693,318.497 243.503,295.455 241.626,288.466 284.748,276.88 287.718,287.927 292.851,307.03 
			283.904,309.433 		"/>
		<path fill="#134575" d="M366.955,370.178c-0.33,0.587-0.384,1.286-0.166,2.096c0.22,0.819,0.624,1.4,1.21,1.741
			c0.586,0.342,1.268,0.409,2.042,0.2c0.769-0.205,1.317-0.603,1.648-1.192c0.334-0.588,0.39-1.292,0.17-2.111
			c-0.217-0.802-0.619-1.376-1.205-1.722c-0.588-0.347-1.27-0.416-2.047-0.208C367.834,369.192,367.281,369.59,366.955,370.178z
			 M373.569,381.136c0.261-0.523,0.292-1.151,0.098-1.882c-0.198-0.732-0.545-1.267-1.04-1.605
			c-0.499-0.338-1.082-0.417-1.752-0.237c-0.671,0.18-1.135,0.539-1.392,1.074c-0.258,0.536-0.288,1.174-0.088,1.915
			c0.193,0.723,0.536,1.246,1.031,1.571c0.491,0.325,1.076,0.398,1.747,0.217C372.841,382.01,373.307,381.659,373.569,381.136z
			 M364.283,375.546c-0.737-0.646-1.246-1.484-1.52-2.511c-0.319-1.177-0.308-2.25,0.022-3.222c0.333-0.972,0.929-1.797,1.788-2.476
			c0.859-0.679,1.919-1.189,3.181-1.528c1.254-0.337,2.427-0.428,3.52-0.273c1.093,0.155,2.032,0.569,2.814,1.241
			c0.785,0.672,1.334,1.597,1.649,2.773c0.274,1.027,0.254,2.009-0.065,2.944c-0.316,0.936-0.884,1.75-1.695,2.445
			c0.928,0.218,1.715,0.624,2.36,1.216c0.644,0.592,1.089,1.342,1.333,2.248c0.3,1.123,0.301,2.154,0.001,3.094
			c-0.295,0.94-0.851,1.74-1.658,2.401c-0.806,0.661-1.802,1.151-2.989,1.469c-1.194,0.32-2.305,0.397-3.335,0.23
			c-1.031-0.167-1.911-0.582-2.639-1.245c-0.729-0.663-1.245-1.557-1.548-2.681c-0.241-0.905-0.235-1.779,0.026-2.619
			c0.262-0.84,0.737-1.587,1.431-2.24C365.913,376.614,365.024,376.193,364.283,375.546z"/>
		<path fill="#134575" d="M351.723,373.998c-0.319,0.394-0.521,0.872-0.604,1.436c-0.081,0.564-0.035,1.164,0.134,1.8
			c0.18,0.662,0.448,1.218,0.807,1.668c0.358,0.45,0.78,0.759,1.266,0.928c0.485,0.169,1.002,0.18,1.549,0.032
			c0.611-0.164,1.107-0.463,1.488-0.898c0.385-0.434,0.625-0.917,0.726-1.448l-0.319-1.189c-0.342-1.272-0.846-2.169-1.509-2.691
			c-0.663-0.523-1.427-0.668-2.288-0.436C352.456,373.337,352.042,373.603,351.723,373.998z M351.296,383.287
			c-0.962-0.357-1.785-0.971-2.462-1.839s-1.179-1.913-1.505-3.132c-0.332-1.237-0.365-2.424-0.097-3.561
			c0.27-1.137,0.821-2.123,1.652-2.958c0.831-0.835,1.883-1.423,3.153-1.765c1.341-0.361,2.609-0.364,3.8-0.012
			c1.194,0.353,2.226,1.027,3.101,2.025c0.875,0.998,1.518,2.255,1.924,3.77l0.409,1.516c0.555,2.073,0.643,4.004,0.26,5.793
			c-0.382,1.789-1.201,3.311-2.451,4.567c-1.252,1.255-2.853,2.145-4.801,2.67l-0.575,0.155l-0.876-3.254l0.234-0.063
			c1.718-0.461,2.997-1.249,3.833-2.368c0.84-1.117,1.164-2.467,0.972-4.05c-0.337,0.615-0.792,1.146-1.364,1.592
			c-0.569,0.448-1.25,0.777-2.032,0.988C353.319,383.669,352.261,383.645,351.296,383.287z"/>
		<polygon fill="#134575" points="337.759,374.147 341.917,373.032 338.881,390.84 348.237,388.326 349.089,391.501 335.58,395.131 
			334.992,392.936 		"/>
		<path fill="#134575" d="M328.09,376.745l0.728,2.705l-4.408,8.16c-0.608,1.201-1.011,2.185-1.201,2.951
			c-0.194,0.765-0.217,1.418-0.07,1.959c0.226,0.837,0.608,1.432,1.147,1.787c0.539,0.355,1.185,0.43,1.943,0.227
			c0.543-0.144,0.974-0.406,1.299-0.782c0.322-0.378,0.524-0.831,0.607-1.362c0.079-0.532,0.043-1.097-0.121-1.698l3.948-1.06
			c0.309,1.158,0.319,2.292,0.03,3.402c-0.29,1.11-0.866,2.082-1.726,2.915c-0.86,0.833-1.946,1.427-3.26,1.781
			c-1.341,0.361-2.536,0.45-3.585,0.269c-1.049-0.181-1.92-0.614-2.617-1.299c-0.701-0.686-1.2-1.599-1.507-2.74
			c-0.225-0.828-0.271-1.674-0.143-2.54c0.125-0.866,0.387-1.765,0.787-2.698c0.397-0.934,0.949-2.037,1.654-3.309l2.254-4.122
			l-7.998,2.148l-0.853-3.175L328.09,376.745z"/>
		<path fill="#134575" d="M305.546,386.403c-0.319,0.394-0.521,0.873-0.601,1.437c-0.084,0.564-0.038,1.163,0.131,1.799
			c0.18,0.663,0.448,1.219,0.806,1.668s0.781,0.759,1.266,0.928c0.485,0.169,1.002,0.18,1.549,0.032
			c0.611-0.163,1.107-0.463,1.488-0.897c0.385-0.434,0.624-0.918,0.726-1.449l-0.319-1.189c-0.342-1.272-0.845-2.169-1.509-2.691
			c-0.663-0.522-1.423-0.667-2.288-0.436C306.282,385.744,305.865,386.009,305.546,386.403z M305.121,395.694
			c-0.965-0.358-1.788-0.971-2.462-1.839c-0.677-0.869-1.182-1.914-1.509-3.133c-0.332-1.237-0.365-2.424-0.094-3.561
			c0.267-1.138,0.818-2.123,1.649-2.959c0.83-0.835,1.883-1.423,3.156-1.764c1.341-0.361,2.605-0.365,3.8-0.012
			c1.191,0.352,2.226,1.027,3.101,2.025c0.875,0.998,1.515,2.254,1.92,3.769l0.408,1.516c0.558,2.073,0.643,4.004,0.26,5.793
			c-0.382,1.789-1.201,3.311-2.45,4.567c-1.249,1.256-2.849,2.146-4.801,2.67l-0.575,0.154l-0.876-3.254l0.238-0.063
			c1.714-0.461,2.993-1.25,3.833-2.367c0.84-1.118,1.161-2.468,0.972-4.051c-0.341,0.614-0.796,1.145-1.368,1.592
			c-0.569,0.448-1.246,0.777-2.032,0.988C307.141,396.074,306.083,396.051,305.121,395.694z"/>
		<path fill="#134575" d="M297.306,385.016l0.728,2.705l-4.408,8.16c-0.612,1.201-1.011,2.185-1.201,2.951
			c-0.193,0.765-0.217,1.418-0.07,1.958c0.226,0.837,0.605,1.431,1.147,1.787c0.539,0.355,1.185,0.43,1.943,0.226
			c0.54-0.146,0.974-0.405,1.295-0.783c0.325-0.376,0.527-0.83,0.61-1.361c0.08-0.532,0.04-1.098-0.121-1.698l3.947-1.06
			c0.31,1.158,0.319,2.292,0.03,3.402s-0.866,2.082-1.725,2.915c-0.86,0.834-1.946,1.427-3.26,1.781
			c-1.344,0.36-2.536,0.45-3.585,0.269s-1.92-0.614-2.621-1.3c-0.697-0.685-1.197-1.598-1.507-2.74
			c-0.221-0.827-0.268-1.673-0.143-2.539c0.128-0.865,0.391-1.765,0.791-2.698c0.397-0.934,0.949-2.037,1.65-3.31l2.258-4.122
			l-7.998,2.148l-0.853-3.175L297.306,385.016z"/>
		<path fill="#134575" d="M277.649,406.486c0.606,0.56,1.33,0.728,2.167,0.504c0.834-0.226,1.374-0.733,1.622-1.522
			c0.244-0.79,0.157-1.965-0.263-3.524l-1.188-4.429c-0.426-1.577-0.942-2.647-1.558-3.211c-0.612-0.563-1.343-0.732-2.185-0.504
			c-0.837,0.224-1.374,0.733-1.608,1.525c-0.237,0.791-0.141,1.976,0.281,3.552l1.191,4.43
			C276.524,404.865,277.04,405.926,277.649,406.486z M270.686,395.692c0.206-1.349,0.712-2.443,1.521-3.28
			c0.806-0.839,1.867-1.434,3.181-1.788c1.317-0.353,2.537-0.371,3.663-0.053c1.13,0.319,2.124,1.009,2.99,2.07
			c0.862,1.061,1.54,2.506,2.031,4.335l0.907,3.371c0.491,1.829,0.63,3.417,0.418,4.763c-0.212,1.346-0.725,2.437-1.537,3.272
			c-0.813,0.835-1.877,1.428-3.19,1.782c-1.317,0.353-2.534,0.372-3.657,0.057c-1.12-0.315-2.112-1.002-2.97-2.06
			c-0.858-1.058-1.533-2.502-2.024-4.331l-0.907-3.372C270.619,398.631,270.476,397.041,270.686,395.692z"/>
		<path fill="#134575" d="M203.701,116.279c0.326-0.587,0.381-1.287,0.163-2.096c-0.22-0.818-0.624-1.4-1.21-1.741
			c-0.586-0.341-1.268-0.409-2.042-0.2c-0.765,0.204-1.317,0.602-1.648,1.191c-0.334,0.588-0.389,1.291-0.17,2.112
			c0.217,0.802,0.619,1.377,1.208,1.722c0.585,0.344,1.269,0.417,2.043,0.207C202.818,117.266,203.37,116.869,203.701,116.279z
			 M197.083,105.323c-0.261,0.523-0.293,1.152-0.094,1.882c0.195,0.733,0.541,1.268,1.041,1.604
			c0.495,0.338,1.078,0.417,1.752,0.239c0.671-0.181,1.135-0.54,1.392-1.075c0.258-0.539,0.285-1.176,0.089-1.917
			c-0.197-0.723-0.54-1.245-1.034-1.573c-0.492-0.323-1.076-0.398-1.747-0.216C197.81,104.449,197.345,104.8,197.083,105.323z
			 M206.369,110.912c0.737,0.646,1.246,1.486,1.523,2.514c0.316,1.174,0.306,2.247-0.024,3.219
			c-0.333,0.972-0.929,1.796-1.788,2.476c-0.856,0.681-1.919,1.189-3.181,1.529c-1.254,0.339-2.427,0.427-3.52,0.275
			c-1.093-0.156-2.032-0.569-2.813-1.242c-0.782-0.673-1.333-1.597-1.649-2.772c-0.274-1.027-0.255-2.009,0.066-2.947
			c0.316-0.936,0.883-1.749,1.696-2.445c-0.925-0.218-1.712-0.623-2.356-1.215c-0.648-0.593-1.093-1.342-1.333-2.246
			c-0.303-1.127-0.303-2.158-0.005-3.095c0.299-0.94,0.852-1.743,1.659-2.404c0.81-0.66,1.806-1.149,2.988-1.466
			c1.195-0.322,2.305-0.397,3.336-0.232c1.03,0.168,1.909,0.584,2.639,1.246c0.729,0.662,1.245,1.555,1.549,2.679
			c0.243,0.909,0.236,1.779-0.026,2.619c-0.259,0.844-0.738,1.589-1.428,2.244C204.739,109.843,205.628,110.265,206.369,110.912z"/>
		<path fill="#134575" d="M218.932,112.462c0.319-0.394,0.517-0.875,0.601-1.438c0.081-0.564,0.038-1.161-0.134-1.8
			c-0.177-0.662-0.448-1.217-0.807-1.666c-0.359-0.449-0.78-0.761-1.266-0.928c-0.481-0.169-0.998-0.178-1.549-0.035
			c-0.607,0.165-1.104,0.464-1.489,0.899c-0.381,0.435-0.625,0.919-0.726,1.448l0.319,1.19c0.345,1.271,0.846,2.167,1.509,2.69
			c0.663,0.523,1.427,0.669,2.288,0.435C218.196,113.123,218.613,112.855,218.932,112.462z M219.357,103.169
			c0.965,0.358,1.785,0.971,2.462,1.84c0.677,0.87,1.179,1.913,1.505,3.131c0.332,1.238,0.365,2.425,0.098,3.561
			c-0.271,1.139-0.821,2.123-1.652,2.958c-0.831,0.835-1.884,1.426-3.154,1.768c-1.341,0.36-2.609,0.364-3.8,0.012
			c-1.192-0.352-2.225-1.029-3.101-2.025c-0.875-1-1.516-2.254-1.924-3.77l-0.408-1.516c-0.554-2.074-0.643-4.005-0.26-5.792
			c0.386-1.79,1.202-3.313,2.451-4.567c1.252-1.256,2.853-2.147,4.805-2.671l0.575-0.155l0.873,3.253l-0.235,0.066
			c-1.717,0.458-2.992,1.248-3.833,2.367c-0.839,1.116-1.163,2.466-0.971,4.049c0.34-0.613,0.796-1.146,1.365-1.594
			c0.571-0.444,1.249-0.775,2.031-0.986C217.333,102.791,218.391,102.812,219.357,103.169z"/>
		<polygon fill="#134575" points="232.893,112.311 228.739,113.428 231.771,95.619 222.416,98.132 221.563,94.957 235.072,91.327 
			235.664,93.522 		"/>
		<path fill="#134575" d="M242.562,109.713l-0.728-2.706l4.408-8.157c0.612-1.203,1.011-2.186,1.205-2.952
			c0.19-0.767,0.213-1.42,0.067-1.96c-0.226-0.838-0.604-1.432-1.147-1.787c-0.539-0.354-1.185-0.43-1.943-0.224
			c-0.539,0.143-0.973,0.403-1.295,0.781c-0.325,0.377-0.528,0.831-0.61,1.361c-0.08,0.531-0.039,1.098,0.121,1.697l-3.943,1.06
			c-0.313-1.159-0.323-2.292-0.034-3.401c0.29-1.112,0.866-2.081,1.726-2.916c0.86-0.834,1.947-1.428,3.26-1.78
			c1.344-0.359,2.536-0.449,3.585-0.268c1.049,0.181,1.921,0.613,2.621,1.301c0.698,0.683,1.2,1.599,1.507,2.738
			c0.221,0.829,0.267,1.673,0.142,2.542c-0.128,0.864-0.39,1.763-0.791,2.698c-0.396,0.932-0.949,2.033-1.65,3.308l-2.257,4.121
			l7.998-2.149l0.852,3.177L242.562,109.713z"/>
		<path fill="#134575" d="M265.107,100.053c0.319-0.394,0.52-0.87,0.601-1.434c0.084-0.563,0.038-1.164-0.131-1.799
			c-0.18-0.663-0.447-1.221-0.806-1.67c-0.359-0.449-0.781-0.757-1.266-0.928c-0.485-0.17-1.002-0.179-1.549-0.031
			c-0.611,0.164-1.107,0.463-1.489,0.898c-0.384,0.431-0.624,0.916-0.725,1.445l0.319,1.19c0.341,1.273,0.845,2.17,1.508,2.694
			c0.664,0.52,1.428,0.665,2.289,0.435C264.37,100.714,264.787,100.45,265.107,100.053z M265.534,90.765
			c0.962,0.356,1.785,0.971,2.462,1.84c0.678,0.866,1.18,1.91,1.506,3.131c0.332,1.238,0.365,2.425,0.094,3.561
			c-0.267,1.136-0.818,2.124-1.649,2.958c-0.831,0.835-1.883,1.423-3.153,1.765c-1.341,0.36-2.609,0.363-3.8,0.012
			c-1.195-0.352-2.226-1.026-3.101-2.025c-0.876-0.996-1.519-2.255-1.924-3.769l-0.409-1.516c-0.559-2.072-0.642-4.005-0.26-5.792
			c0.383-1.791,1.201-3.31,2.451-4.567c1.249-1.257,2.853-2.147,4.802-2.672l0.575-0.152l0.876,3.254l-0.238,0.062
			c-1.715,0.463-2.993,1.251-3.833,2.367c-0.836,1.117-1.161,2.47-0.968,4.05c0.337-0.613,0.792-1.143,1.364-1.591
			c0.569-0.448,1.246-0.779,2.032-0.989C263.511,90.383,264.569,90.408,265.534,90.765z"/>
		<path fill="#134575" d="M273.346,101.441l-0.724-2.705l4.404-8.158c0.613-1.203,1.011-2.186,1.205-2.952
			c0.189-0.764,0.213-1.416,0.067-1.96c-0.223-0.833-0.605-1.428-1.143-1.786c-0.542-0.355-1.189-0.428-1.947-0.226
			c-0.539,0.143-0.974,0.406-1.295,0.781c-0.326,0.377-0.528,0.831-0.611,1.361c-0.079,0.532-0.039,1.098,0.121,1.697l-3.945,1.063
			c-0.313-1.159-0.322-2.296-0.033-3.404c0.289-1.109,0.866-2.081,1.726-2.916c0.859-0.831,1.946-1.425,3.263-1.78
			c1.341-0.36,2.536-0.449,3.582-0.269c1.049,0.181,1.921,0.613,2.621,1.301c0.698,0.683,1.2,1.599,1.506,2.741
			c0.222,0.825,0.271,1.675,0.143,2.539c-0.128,0.865-0.39,1.763-0.788,2.699c-0.4,0.931-0.949,2.037-1.653,3.307l-2.254,4.122
			l7.994-2.147l0.853,3.174L273.346,101.441z"/>
		<path fill="#134575" d="M293.007,79.974c-0.609-0.56-1.333-0.732-2.167-0.506c-0.837,0.226-1.378,0.733-1.626,1.521
			c-0.244,0.789-0.157,1.965,0.263,3.524l1.188,4.427c0.425,1.579,0.942,2.649,1.558,3.212c0.611,0.565,1.343,0.734,2.188,0.507
			c0.834-0.227,1.371-0.735,1.608-1.526c0.233-0.792,0.141-1.977-0.285-3.552l-1.188-4.431
			C294.128,81.592,293.612,80.533,293.007,79.974z M299.97,90.765c-0.21,1.351-0.716,2.446-1.522,3.283
			c-0.809,0.837-1.87,1.43-3.184,1.786c-1.317,0.352-2.537,0.372-3.663,0.052c-1.126-0.319-2.124-1.009-2.986-2.069
			c-0.865-1.063-1.543-2.508-2.034-4.337l-0.907-3.373c-0.491-1.829-0.63-3.416-0.418-4.762c0.213-1.347,0.725-2.436,1.538-3.272
			c0.812-0.833,1.876-1.428,3.193-1.78c1.314-0.356,2.534-0.373,3.654-0.058c1.121,0.314,2.111,1.002,2.97,2.06
			c0.859,1.058,1.534,2.502,2.025,4.331L299.542,86C300.033,87.829,300.176,89.417,299.97,90.765z"/>
	</g>
	<g id="XMLID_292_">
		<path id="XMLID_293_" fill-rule="evenodd" clip-rule="evenodd" fill="#FFFFFF" d="M210.546,69.115l7.998-4.618
			c6.571,11.381,21.147,15.284,32.529,8.713l183.881,318.493c-11.381,6.571-15.288,21.146-8.717,32.528l-7.998,4.618
			c-2.551-4.4-8.19-5.907-12.595-3.364c-4.408,2.543-5.92,8.182-3.383,12.59l-4.259,2.458c-2.551-4.4-8.19-5.907-12.594-3.364
			c-4.405,2.543-5.92,8.182-3.384,12.59l-4.259,2.458c-2.551-4.4-8.19-5.907-12.595-3.364c-4.405,2.543-5.92,8.182-3.383,12.59
			l-4.258,2.458c-2.551-4.4-8.19-5.907-12.595-3.364c-4.405,2.543-5.92,8.182-3.383,12.59l-4.259,2.458
			c-2.547-4.4-8.19-5.907-12.595-3.364c-4.404,2.543-5.92,8.182-3.383,12.59l-4.259,2.458c-2.547-4.4-8.19-5.907-12.595-3.364
			c-4.405,2.543-5.92,8.181-3.383,12.589l-8.183,4.724c-6.571-11.381-21.144-15.286-32.529-8.716L76.485,174.01
			c11.381-6.571,15.288-21.148,8.717-32.529l8.183-4.725c2.547,4.412,8.194,5.924,12.602,3.376c4.412-2.544,5.924-8.19,3.376-12.602
			l4.259-2.458c2.547,4.412,8.194,5.924,12.602,3.376c4.408-2.544,5.924-8.19,3.377-12.602l4.258-2.458
			c2.547,4.412,8.194,5.924,12.602,3.376c4.408-2.544,5.924-8.19,3.376-12.602l4.259-2.458c2.544,4.412,8.194,5.924,12.602,3.38
			c4.408-2.547,5.923-8.194,3.376-12.602l4.259-2.458c2.543,4.408,8.19,5.92,12.601,3.376c4.408-2.547,5.92-8.194,3.376-12.602
			l4.259-2.458c2.544,4.408,8.19,5.92,12.602,3.376C211.578,79.17,213.09,73.523,210.546,69.115z"/>
		
			<path id="XMLID_294_" fill="none" stroke="#134575" stroke-width="2.5961" stroke-linecap="round" stroke-linejoin="round" stroke-miterlimit="10" d="
			M210.546,69.115l7.998-4.618c6.571,11.381,21.147,15.284,32.529,8.713l183.881,318.493c-11.381,6.571-15.288,21.146-8.717,32.528
			l-7.998,4.618c-2.551-4.4-8.19-5.907-12.595-3.364c-4.408,2.543-5.92,8.182-3.383,12.59l-4.259,2.458
			c-2.551-4.4-8.19-5.907-12.594-3.364c-4.405,2.543-5.92,8.182-3.384,12.59l-4.259,2.458c-2.551-4.4-8.19-5.907-12.595-3.364
			c-4.405,2.543-5.92,8.182-3.383,12.59l-4.258,2.458c-2.551-4.4-8.19-5.907-12.595-3.364c-4.405,2.543-5.92,8.182-3.383,12.59
			l-4.259,2.458c-2.547-4.4-8.19-5.907-12.595-3.364c-4.404,2.543-5.92,8.182-3.383,12.59l-4.259,2.458
			c-2.547-4.4-8.19-5.907-12.595-3.364c-4.405,2.543-5.92,8.181-3.383,12.589l-8.183,4.724
			c-6.571-11.381-21.144-15.286-32.529-8.716L76.485,174.01c11.381-6.571,15.288-21.148,8.717-32.529l8.183-4.725
			c2.547,4.412,8.194,5.924,12.602,3.376c4.412-2.544,5.924-8.19,3.376-12.602l4.259-2.458c2.547,4.412,8.194,5.924,12.602,3.376
			c4.408-2.544,5.924-8.19,3.377-12.602l4.258-2.458c2.547,4.412,8.194,5.924,12.602,3.376c4.408-2.544,5.924-8.19,3.376-12.602
			l4.259-2.458c2.544,4.412,8.194,5.924,12.602,3.38c4.408-2.547,5.923-8.194,3.376-12.602l4.259-2.458
			c2.543,4.408,8.19,5.92,12.601,3.376c4.408-2.547,5.92-8.194,3.376-12.602l4.259-2.458c2.544,4.408,8.19,5.92,12.602,3.376
			C211.578,79.17,213.09,73.523,210.546,69.115z"/>
		<path id="XMLID_295_" fill-rule="evenodd" clip-rule="evenodd" fill="#FFFFFF" d="M389.443,406.263
			c9.684-5.59,13-17.971,7.411-27.653c-30.771-53.297-122.978-213.004-153.75-266.3c-5.589-9.684-17.97-13-27.651-7.411
			c-24.602,14.206-69.11,39.901-93.712,54.107c-9.684,5.589-13,17.97-7.411,27.651c30.772,53.296,122.979,213.004,153.75,266.301
			c5.589,9.682,17.971,12.999,27.651,7.409C320.332,446.164,364.841,420.467,389.443,406.263z"/>
		
			<path id="XMLID_296_" fill="none" stroke="#134575" stroke-width="2.049" stroke-linecap="round" stroke-linejoin="round" stroke-miterlimit="10" d="
			M389.443,406.263c9.684-5.59,13-17.971,7.411-27.653c-30.771-53.297-122.978-213.004-153.75-266.3
			c-5.589-9.684-17.97-13-27.651-7.411c-24.602,14.206-69.11,39.901-93.712,54.107c-9.684,5.589-13,17.97-7.411,27.651
			c30.772,53.296,122.979,213.004,153.75,266.301c5.589,9.682,17.971,12.999,27.651,7.409
			C320.332,446.164,364.841,420.467,389.443,406.263z"/>
		
			<line id="XMLID_297_" fill="none" stroke="#134575" stroke-width="2.5961" stroke-linejoin="round" stroke-miterlimit="10" x1="257.658" y1="137.514" x2="128.881" y2="211.864"/>
		
			<line id="XMLID_298_" fill="none" stroke="#134575" stroke-width="2.5961" stroke-linejoin="round" stroke-miterlimit="10" x1="381.829" y1="352.588" x2="253.055" y2="426.936"/>
		<path id="XMLID_299_" fill="#134575" d="M237.472,201.44l10.04-10.826l-14.381,3.309L237.472,201.44z M230.876,208.542
			l-7.176-12.431l-7.535,1.729l-6.148-10.648l46.81-8.222l3.896,6.746l1.533,2.654l-30.48,36.51l-6.166-10.677L230.876,208.542z"/>
		<path id="XMLID_302_" fill="#134575" d="M266.76,239.042c3.469-2.003,5.706-4.191,6.71-6.564c1-2.373,0.758-4.853-0.736-7.436
			l-1.594-2.764l-22.656,13.082l1.733,2.999c1.423,2.462,3.401,3.846,5.938,4.152c2.537,0.306,5.568-0.559,9.09-2.594
			L266.76,239.042z M283.737,231.098c-0.014,3.657-0.989,7.076-2.928,10.261c-1.939,3.188-4.686,5.806-8.247,7.859l-1.459,0.843
			c-3.561,2.056-7.197,3.127-10.908,3.22c-3.714,0.089-7.151-0.761-10.307-2.551c-3.159-1.786-5.714-4.373-7.667-7.756l-5.013-8.685
			l-2.437-4.223l38.67-22.325l5.717,9.908l1.594,2.761C282.759,223.879,283.752,227.444,283.737,231.098z"/>
		<polygon id="XMLID_305_" fill="#134575" points="280.976,310.1 275.241,300.167 282.545,295.95 302.75,285.559 270.659,292.226 
			266.916,285.745 288.736,261.286 269.648,273.614 262.348,277.831 256.612,267.896 295.282,245.571 300.11,253.939 
			302.811,258.614 281.802,281.472 312.104,274.706 319.646,287.774 		"/>
		
			<rect id="XMLID_306_" x="285.974" y="307.082" transform="matrix(-0.866 0.5 -0.5 -0.866 731.6811 429.4893)" fill="#134575" width="44.652" height="11.378"/>
		<polygon id="XMLID_307_" fill="#134575" points="345.418,350.935 338.762,339.408 308.115,357.103 302.38,347.17 333.027,329.475 
			326.541,318.241 334.564,313.61 346.785,334.777 353.438,346.304 		"/>
		<path id="XMLID_308_" fill="#134575" d="M219.864,260.877c1.185-2.302,1.128-4.575-0.17-6.824
			c-2.686-4.657-7.707-4.864-15.053-0.623l-1.462,0.843c-3.576,2.064-5.977,4.237-7.201,6.511c-1.22,2.277-1.16,4.586,0.192,6.923
			c1.288,2.231,3.241,3.391,5.866,3.48c2.626,0.089,5.7-0.882,9.226-2.917l1.458-0.843
			C216.296,265.363,218.679,263.178,219.864,260.877z M205.686,282.076c-3.732,0.219-7.123-0.516-10.161-2.207
			c-3.042-1.691-5.522-4.193-7.432-7.501c-1.943-3.366-2.885-6.792-2.836-10.278c0.054-3.49,1.11-6.792,3.17-9.905
			c2.064-3.117,5.031-5.792,8.909-8.03l1.409-0.811c3.878-2.241,7.681-3.472,11.406-3.704c3.729-0.228,7.119,0.502,10.168,2.188
			c3.053,1.683,5.543,4.202,7.475,7.546c1.911,3.312,2.839,6.714,2.779,10.207c-0.06,3.494-1.117,6.806-3.17,9.937
			c-2.053,3.134-5.016,5.821-8.894,8.058l-1.405,0.813C213.225,280.628,209.419,281.857,205.686,282.076z"/>
		<polygon id="XMLID_311_" fill="#134575" points="215.755,319.054 230.801,293.159 208.305,306.146 202.584,296.24 
			241.254,273.912 246.974,283.82 231.943,309.673 254.41,296.701 260.113,306.581 221.444,328.907 		"/>
		<polygon id="XMLID_312_" fill="#134575" points="262.526,329.282 255.542,333.315 263.838,347.684 256.136,352.13 
			247.839,337.762 239.873,342.362 249.7,359.386 241.705,364.002 229.776,343.339 226.158,337.071 264.827,314.745 
			270.548,324.651 280.439,341.782 272.416,346.413 		"/>
		<path id="XMLID_313_" fill="#134575" d="M368.334,383.657c-0.167,0.652-0.039,1.342,0.381,2.068
			c0.424,0.734,0.964,1.191,1.619,1.37c0.654,0.179,1.33,0.068,2.024-0.334c0.691-0.397,1.117-0.923,1.284-1.577
			c0.171-0.655,0.043-1.349-0.38-2.083c-0.416-0.719-0.954-1.169-1.608-1.352c-0.658-0.183-1.334-0.073-2.032,0.328
			C368.928,382.478,368.498,383.005,368.334,383.657z M377.552,392.536c0.117-0.573-0.014-1.187-0.391-1.844
			c-0.381-0.656-0.854-1.083-1.42-1.282c-0.569-0.198-1.153-0.124-1.754,0.223c-0.601,0.347-0.957,0.813-1.067,1.397
			c-0.11,0.585,0.025,1.209,0.409,1.873c0.374,0.648,0.84,1.066,1.402,1.252c0.559,0.187,1.142,0.106,1.743-0.241
			C377.076,393.569,377.435,393.109,377.552,392.536z M367.139,389.533c-0.879-0.434-1.587-1.112-2.117-2.034
			c-0.612-1.055-0.879-2.094-0.811-3.118c0.071-1.025,0.434-1.976,1.089-2.854c0.655-0.878,1.548-1.644,2.679-2.298
			c1.124-0.649,2.234-1.04,3.33-1.173s2.11,0.025,3.038,0.472c0.932,0.447,1.701,1.198,2.309,2.253
			c0.53,0.922,0.765,1.876,0.697,2.862c-0.064,0.986-0.402,1.919-1.007,2.8c0.953-0.029,1.818,0.16,2.593,0.566
			s1.398,1.015,1.868,1.828c0.58,1.008,0.847,2.004,0.801,2.989c-0.043,0.985-0.374,1.901-0.982,2.747
			c-0.608,0.847-1.444,1.577-2.508,2.191c-1.071,0.618-2.124,0.979-3.163,1.084c-1.039,0.105-1.996-0.069-2.871-0.522
			s-1.605-1.183-2.188-2.191c-0.466-0.812-0.687-1.658-0.651-2.537c0.036-0.879,0.302-1.723,0.804-2.533
			C368.989,390.144,368.021,389.967,367.139,389.533z"/>
		<path id="XMLID_317_" fill="#134575" d="M354.605,391.28c-0.206,0.463-0.277,0.977-0.213,1.543
			c0.068,0.566,0.267,1.134,0.594,1.704c0.345,0.593,0.747,1.061,1.21,1.403c0.462,0.342,0.95,0.532,1.462,0.57
			c0.513,0.038,1.014-0.085,1.505-0.369c0.548-0.316,0.95-0.733,1.206-1.252c0.26-0.518,0.367-1.047,0.327-1.586l-0.616-1.066
			c-0.658-1.14-1.377-1.877-2.152-2.21c-0.776-0.333-1.552-0.277-2.324,0.17C355.142,390.452,354.811,390.816,354.605,391.28z
			 M356.59,400.365c-1.021-0.096-1.975-0.477-2.853-1.141c-0.879-0.664-1.633-1.543-2.263-2.637
			c-0.64-1.109-0.978-2.248-1.014-3.415c-0.032-1.168,0.245-2.263,0.832-3.284c0.587-1.021,1.452-1.861,2.59-2.52
			c1.203-0.694,2.426-1.025,3.668-0.993c1.245,0.032,2.416,0.418,3.519,1.156c1.103,0.738,2.049,1.787,2.832,3.146l0.786,1.359
			c1.071,1.859,1.654,3.702,1.747,5.53c0.092,1.827-0.306,3.509-1.188,5.045c-0.886,1.536-2.202,2.809-3.949,3.819l-0.516,0.298
			l-1.687-2.918l0.21-0.122c1.541-0.888,2.572-1.981,3.092-3.277c0.523-1.296,0.487-2.684-0.107-4.164
			c-0.167,0.681-0.469,1.311-0.907,1.891c-0.434,0.58-1.007,1.073-1.708,1.479C358.643,400.211,357.615,400.461,356.59,400.365z"/>
		<polygon id="XMLID_320_" fill="#134575" points="341.153,395.03 344.881,392.878 346.546,410.866 354.936,406.022 356.579,408.87 
			344.465,415.865 343.33,413.896 		"/>
		<path id="XMLID_321_" fill="#134575" d="M332.482,400.036l1.402,2.425l-2.152,9.021c-0.277,1.318-0.412,2.372-0.398,3.161
			c0.011,0.789,0.157,1.426,0.438,1.911c0.434,0.75,0.957,1.227,1.569,1.43c0.612,0.204,1.256,0.11,1.936-0.283
			c0.487-0.28,0.836-0.643,1.053-1.09c0.213-0.448,0.292-0.938,0.235-1.472c-0.061-0.534-0.242-1.07-0.555-1.609l3.54-2.043
			c0.598,1.039,0.9,2.132,0.907,3.28c0.007,1.147-0.299,2.234-0.914,3.261c-0.615,1.027-1.512,1.881-2.69,2.562
			c-1.203,0.694-2.334,1.09-3.394,1.185c-1.06,0.096-2.014-0.097-2.864-0.58c-0.854-0.482-1.572-1.235-2.163-2.258
			c-0.431-0.742-0.694-1.548-0.793-2.416c-0.103-0.869-0.082-1.806,0.064-2.81c0.142-1.005,0.391-2.213,0.744-3.624l1.114-4.565
			l-7.173,4.14l-1.644-2.847L332.482,400.036z"/>
		<path id="XMLID_322_" fill="#134575" d="M313.196,415.187c-0.207,0.463-0.277,0.977-0.21,1.543
			c0.064,0.566,0.263,1.134,0.591,1.704c0.345,0.594,0.747,1.062,1.209,1.404c0.462,0.342,0.95,0.532,1.462,0.57
			c0.512,0.038,1.014-0.085,1.505-0.369c0.548-0.316,0.95-0.733,1.206-1.251c0.26-0.519,0.366-1.047,0.327-1.587l-0.616-1.066
			c-0.658-1.14-1.377-1.877-2.152-2.21s-1.548-0.277-2.323,0.17C313.736,414.359,313.402,414.724,313.196,415.187z M315.184,424.272
			c-1.024-0.096-1.978-0.476-2.853-1.141c-0.879-0.665-1.636-1.544-2.266-2.637c-0.641-1.109-0.979-2.248-1.01-3.415
			c-0.036-1.168,0.242-2.262,0.829-3.284c0.587-1.021,1.452-1.861,2.594-2.52c1.203-0.694,2.423-1.025,3.668-0.993
			c1.242,0.033,2.416,0.418,3.519,1.156c1.103,0.738,2.045,1.786,2.828,3.145l0.786,1.359c1.074,1.859,1.654,3.702,1.747,5.529
			c0.092,1.827-0.306,3.509-1.188,5.045c-0.882,1.536-2.199,2.809-3.949,3.819l-0.516,0.298l-1.686-2.917l0.213-0.122
			c1.537-0.888,2.569-1.981,3.092-3.277c0.523-1.296,0.484-2.684-0.107-4.164c-0.171,0.681-0.473,1.311-0.911,1.891
			c-0.434,0.58-1.003,1.073-1.708,1.479C317.234,424.118,316.205,424.368,315.184,424.272z"/>
		<path id="XMLID_325_" fill="#134575" d="M304.877,415.974l1.402,2.426l-2.152,9.021c-0.281,1.318-0.413,2.372-0.398,3.161
			c0.011,0.789,0.157,1.426,0.438,1.91c0.434,0.75,0.953,1.227,1.569,1.431c0.612,0.203,1.256,0.109,1.935-0.283
			c0.484-0.28,0.836-0.643,1.05-1.09c0.217-0.447,0.295-0.938,0.238-1.472c-0.06-0.534-0.245-1.071-0.555-1.61l3.54-2.043
			c0.598,1.039,0.9,2.132,0.907,3.279c0.007,1.147-0.299,2.235-0.914,3.261c-0.616,1.027-1.512,1.881-2.69,2.562
			c-1.206,0.694-2.334,1.09-3.394,1.186c-1.06,0.096-2.013-0.097-2.868-0.58c-0.85-0.482-1.569-1.235-2.163-2.258
			c-0.427-0.742-0.69-1.548-0.793-2.416c-0.099-0.869-0.078-1.806,0.068-2.81c0.142-1.005,0.391-2.213,0.74-3.624l1.117-4.565
			l-7.173,4.14l-1.643-2.847L304.877,415.974z"/>
		<path id="XMLID_326_" fill="#134575" d="M291.429,441.791c0.729,0.384,1.473,0.36,2.224-0.073
			c0.747-0.433,1.139-1.062,1.174-1.889c0.032-0.826-0.355-1.939-1.163-3.337l-2.291-3.972c-0.818-1.414-1.594-2.314-2.334-2.7
			c-0.736-0.386-1.487-0.36-2.241,0.077c-0.751,0.433-1.138,1.062-1.16,1.888c-0.025,0.826,0.374,1.946,1.188,3.36l2.295,3.972
			C289.924,440.515,290.696,441.407,291.429,441.791z M281.915,433.161c-0.149-1.357,0.057-2.544,0.623-3.562
			c0.562-1.018,1.433-1.867,2.611-2.548c1.181-0.681,2.356-1.013,3.526-0.997c1.174,0.017,2.313,0.426,3.423,1.229
			c1.106,0.802,2.135,2.024,3.081,3.664l1.747,3.023c0.947,1.641,1.491,3.138,1.633,4.493c0.142,1.355-0.071,2.541-0.64,3.557
			c-0.57,1.016-1.445,1.865-2.622,2.546c-1.182,0.681-2.352,1.014-3.519,0.999c-1.163-0.015-2.298-0.423-3.401-1.223
			c-1.103-0.801-2.128-2.021-3.074-3.662l-1.747-3.023C282.609,436.016,282.061,434.517,281.915,433.161z"/>
		<path id="XMLID_329_" fill="#134575" d="M145.065,180.513c0.164-0.651,0.036-1.341-0.384-2.067
			c-0.423-0.733-0.964-1.192-1.618-1.37c-0.655-0.178-1.331-0.068-2.025,0.334c-0.687,0.395-1.117,0.921-1.284,1.576
			c-0.171,0.655-0.043,1.348,0.381,2.085c0.416,0.719,0.953,1.171,1.612,1.352c0.654,0.181,1.334,0.075,2.028-0.327
			C144.467,181.694,144.898,181.168,145.065,180.513z M135.843,171.637c-0.117,0.573,0.014,1.188,0.395,1.843
			c0.377,0.658,0.85,1.085,1.42,1.281c0.566,0.199,1.149,0.125,1.754-0.221c0.601-0.349,0.957-0.815,1.067-1.398
			c0.11-0.587-0.028-1.21-0.409-1.875c-0.377-0.648-0.843-1.064-1.405-1.252c-0.559-0.185-1.142-0.107-1.743,0.242
			C136.32,170.605,135.961,171.064,135.843,171.637z M146.257,174.639c0.879,0.434,1.587,1.114,2.12,2.035
			c0.608,1.053,0.875,2.092,0.808,3.117c-0.071,1.025-0.434,1.975-1.089,2.853c-0.651,0.879-1.548,1.644-2.679,2.298
			c-1.124,0.651-2.234,1.039-3.33,1.174c-1.096,0.132-2.11-0.025-3.038-0.473c-0.929-0.448-1.701-1.199-2.309-2.252
			c-0.53-0.921-0.765-1.875-0.697-2.864c0.064-0.986,0.402-1.918,1.007-2.8c-0.95,0.028-1.814-0.16-2.59-0.566
			c-0.779-0.406-1.402-1.014-1.867-1.825c-0.583-1.01-0.851-2.007-0.804-2.989c0.046-0.986,0.374-1.903,0.982-2.75
			c0.612-0.847,1.448-1.576,2.508-2.188c1.071-0.619,2.124-0.978,3.163-1.085c1.039-0.103,1.996,0.071,2.871,0.523
			c0.875,0.452,1.605,1.181,2.188,2.188c0.47,0.815,0.687,1.658,0.651,2.537c-0.032,0.882-0.302,1.726-0.801,2.537
			C144.407,174.027,145.375,174.205,146.257,174.639z"/>
		<path id="XMLID_333_" fill="#134575" d="M158.795,172.892c0.206-0.463,0.274-0.978,0.21-1.544
			c-0.068-0.566-0.263-1.131-0.594-1.704c-0.342-0.594-0.747-1.06-1.209-1.402c-0.463-0.342-0.95-0.534-1.463-0.569
			c-0.509-0.039-1.01,0.085-1.505,0.366c-0.544,0.317-0.946,0.733-1.206,1.252c-0.256,0.519-0.366,1.05-0.327,1.587l0.615,1.067
			c0.662,1.138,1.377,1.875,2.153,2.209c0.775,0.334,1.551,0.278,2.323-0.171C158.254,173.721,158.588,173.355,158.795,172.892z
			 M156.806,163.806c1.025,0.096,1.975,0.477,2.853,1.142c0.879,0.665,1.633,1.544,2.263,2.636c0.64,1.11,0.978,2.249,1.014,3.415
			c0.032,1.171-0.246,2.263-0.833,3.284s-1.452,1.864-2.59,2.522c-1.203,0.694-2.426,1.025-3.668,0.993
			c-1.242-0.032-2.415-0.42-3.518-1.156c-1.103-0.74-2.046-1.786-2.832-3.145l-0.786-1.359c-1.071-1.861-1.654-3.704-1.747-5.529
			c-0.089-1.829,0.306-3.512,1.188-5.045c0.886-1.537,2.202-2.811,3.953-3.821l0.516-0.299l1.683,2.917l-0.21,0.125
			c-1.541,0.886-2.569,1.978-3.092,3.277c-0.523,1.295-0.487,2.683,0.107,4.163c0.171-0.68,0.473-1.313,0.907-1.893
			c0.438-0.576,1.007-1.071,1.708-1.476C154.753,163.962,155.781,163.71,156.806,163.806z"/>
		<polygon id="XMLID_336_" fill="#134575" points="172.243,169.143 168.518,171.295 166.849,153.307 158.46,158.149 
			156.816,155.303 168.931,148.308 170.07,150.276 		"/>
		<path id="XMLID_337_" fill="#134575" d="M180.913,164.137l-1.402-2.426l2.152-9.019c0.281-1.32,0.413-2.373,0.402-3.163
			c-0.014-0.79-0.16-1.427-0.441-1.911c-0.434-0.751-0.953-1.227-1.569-1.43c-0.612-0.203-1.256-0.11-1.935,0.285
			c-0.484,0.278-0.836,0.64-1.05,1.089c-0.217,0.448-0.295,0.939-0.238,1.473c0.06,0.534,0.245,1.071,0.555,1.608l-3.536,2.042
			c-0.601-1.039-0.904-2.131-0.911-3.277c-0.007-1.149,0.299-2.234,0.914-3.262c0.616-1.028,1.512-1.882,2.69-2.562
			c1.206-0.694,2.334-1.089,3.394-1.185c1.06-0.096,2.014,0.096,2.868,0.58c0.85,0.48,1.573,1.235,2.163,2.256
			c0.427,0.744,0.69,1.548,0.793,2.419c0.1,0.868,0.078,1.804-0.068,2.811c-0.142,1.003-0.391,2.209-0.74,3.622l-1.117,4.565
			l7.172-4.141l1.644,2.85L180.913,164.137z"/>
		<path id="XMLID_338_" fill="#134575" d="M200.2,148.984c0.206-0.463,0.278-0.975,0.21-1.541c-0.064-0.566-0.263-1.135-0.59-1.704
			c-0.345-0.594-0.747-1.064-1.21-1.405c-0.463-0.342-0.95-0.53-1.462-0.569c-0.512-0.039-1.014,0.085-1.505,0.37
			c-0.548,0.317-0.95,0.733-1.206,1.252c-0.26,0.516-0.367,1.046-0.328,1.583l0.616,1.067c0.658,1.142,1.377,1.879,2.152,2.213
			c0.776,0.331,1.551,0.274,2.323-0.171C199.659,149.813,199.994,149.45,200.2,148.984z M198.215,139.901
			c1.021,0.096,1.975,0.477,2.853,1.142c0.879,0.662,1.633,1.541,2.263,2.636c0.64,1.11,0.978,2.249,1.01,3.415
			c0.035,1.167-0.242,2.263-0.829,3.284c-0.587,1.021-1.452,1.861-2.59,2.519c-1.203,0.694-2.427,1.025-3.668,0.993
			c-1.245-0.032-2.416-0.416-3.519-1.156c-1.103-0.736-2.049-1.786-2.832-3.145l-0.786-1.359c-1.074-1.857-1.654-3.704-1.747-5.529
			c-0.093-1.829,0.306-3.508,1.188-5.045c0.882-1.537,2.202-2.811,3.949-3.821l0.516-0.295l1.686,2.917l-0.213,0.121
			c-1.537,0.889-2.569,1.982-3.092,3.277c-0.519,1.295-0.484,2.686,0.11,4.163c0.167-0.68,0.47-1.309,0.907-1.889
			c0.434-0.58,1.003-1.074,1.708-1.48C196.162,140.054,197.19,139.805,198.215,139.901z"/>
		<path id="XMLID_341_" fill="#134575" d="M208.518,148.198l-1.398-2.426l2.149-9.019c0.281-1.32,0.413-2.373,0.402-3.163
			c-0.014-0.786-0.16-1.423-0.441-1.911c-0.43-0.747-0.953-1.224-1.565-1.43c-0.615-0.203-1.259-0.107-1.939,0.285
			c-0.484,0.278-0.836,0.644-1.05,1.089c-0.217,0.448-0.295,0.939-0.238,1.473c0.061,0.534,0.246,1.071,0.555,1.608l-3.536,2.046
			c-0.601-1.039-0.904-2.135-0.911-3.28c-0.007-1.146,0.299-2.234,0.915-3.262c0.615-1.025,1.512-1.879,2.693-2.562
			c1.203-0.694,2.334-1.089,3.391-1.185c1.06-0.096,2.014,0.096,2.868,0.58c0.851,0.48,1.573,1.235,2.163,2.259
			c0.427,0.74,0.694,1.548,0.793,2.416c0.1,0.868,0.078,1.804-0.064,2.811c-0.146,1.003-0.391,2.213-0.744,3.622l-1.114,4.565
			l7.169-4.138l1.644,2.846L208.518,148.198z"/>
		<path id="XMLID_342_" fill="#134575" d="M221.97,122.382c-0.733-0.384-1.476-0.363-2.224,0.071
			c-0.751,0.434-1.142,1.064-1.178,1.889c-0.032,0.825,0.356,1.939,1.163,3.337l2.291,3.97c0.818,1.416,1.594,2.316,2.334,2.7
			c0.737,0.388,1.488,0.363,2.245-0.075c0.747-0.434,1.135-1.064,1.16-1.889c0.021-0.825-0.374-1.946-1.192-3.359l-2.291-3.974
			C223.472,123.656,222.7,122.767,221.97,122.382z M231.484,131.01c0.146,1.359-0.06,2.547-0.623,3.565
			c-0.566,1.018-1.437,1.864-2.615,2.547c-1.181,0.68-2.355,1.014-3.526,0.996c-1.171-0.018-2.312-0.427-3.419-1.227
			c-1.11-0.804-2.138-2.024-3.085-3.665l-1.747-3.024c-0.946-1.64-1.491-3.138-1.633-4.493c-0.142-1.356,0.071-2.54,0.641-3.558
			c0.569-1.014,1.444-1.864,2.625-2.544c1.178-0.683,2.352-1.014,3.515-1c1.163,0.014,2.298,0.423,3.401,1.224
			c1.103,0.801,2.128,2.021,3.074,3.661l1.747,3.024C230.786,128.157,231.334,129.655,231.484,131.01z"/>
	</g>
</g>
</svg>
