<?xml version="1.0" encoding="utf-8"?>
<!-- Generator: Adobe Illustrator 17.0.0, SVG Export Plug-In . SVG Version: 6.00 Build 0)  -->
<!DOCTYPE svg PUBLIC "-//W3C//DTD SVG 1.1//EN" "http://www.w3.org/Graphics/SVG/1.1/DTD/svg11.dtd">
<svg version="1.1" id="Layer_1" xmlns="http://www.w3.org/2000/svg" xmlns:xlink="http://www.w3.org/1999/xlink" x="0px" y="0px"
	 width="640px" height="496.27px" viewBox="0 0 640 496.27" enable-background="new 0 0 640 496.27" xml:space="preserve">
<g id="XMLID_749_">
	<path id="XMLID_750_" fill-rule="evenodd" clip-rule="evenodd" fill="#DFDEDD" d="M640,496.27H0
		c0-176.613,143.385-319.999,320-319.999C496.612,176.271,639.996,319.656,640,496.27z"/>
	<g id="NmDMgV_1_">
		<g id="XMLID_752_">
			<g id="XMLID_762_">
				<path fill="#FFFFFF" d="M471.335,493.262c-0.13-0.278-0.259-0.558-0.388-0.836c-0.521-1.124-1.058-2.286-1.683-3.402
					c-24.084-43.039-48.174-86.075-72.264-129.11c-20.89-37.317-41.779-74.635-62.664-111.955c-1.079-1.928-2.17-3.851-3.26-5.772
					c-7.191-12.675-14.628-25.782-18.316-40.326c-1.59-6.267-2.813-12.723-3.997-18.966c-0.378-1.994-0.757-3.989-1.146-5.981
					v-34.366l0.287-1.382c0.233-1.112,0.467-2.224,0.669-3.341c5.695-31.554,17.881-58.389,36.218-79.758
					c18.04-21.024,42.565-37.378,72.894-48.609c10.603-3.926,21.938-5.825,32.899-7.66l3.252-0.547h36.375
					c0.929,0.172,1.857,0.34,2.787,0.509c2.094,0.379,4.188,0.759,6.273,1.177c33.75,6.773,61.892,19.992,83.644,39.292
					c22.143,19.646,38.317,46.173,48.077,78.845c1.419,4.75,2.316,9.781,3.186,14.646c0.399,2.24,0.813,4.554,1.273,6.825v34.375
					c-0.087,0.464-0.177,0.929-0.266,1.393c-0.216,1.119-0.432,2.238-0.611,3.363c-3.088,19.287-7.503,33.334-14.316,45.549
					c-23.827,42.716-48.105,86.118-71.584,128.092C534.112,381.35,519.55,407.382,505,433.422
					c-7.691,13.765-15.457,27.788-22.968,41.351c-3.413,6.164-6.826,12.328-10.245,18.489H471.335z M473.176,57.332
					c-28.443,0.04-55.214,11.217-75.38,31.474c-20.056,20.146-31.053,46.762-30.966,74.945
					c0.182,58.575,48.144,106.233,106.915,106.237h0.121c58.664-0.065,106.379-47.827,106.365-106.47
					c-0.015-58.551-47.971-106.186-106.901-106.186H473.176z"/>
				<path fill="#134575" d="M490.096,2.5c0.899,0.166,1.799,0.329,2.698,0.492c2.048,0.371,4.167,0.755,6.231,1.169
					c33.53,6.729,61.475,19.851,83.06,39.002c21.966,19.489,38.017,45.822,47.709,78.268c1.399,4.683,2.29,9.678,3.153,14.509
					c0.394,2.206,0.801,4.485,1.254,6.73v34.133c-0.081,0.43-0.164,0.86-0.246,1.29c-0.212,1.101-0.432,2.24-0.615,3.385
					c-3.064,19.137-7.435,33.058-14.173,45.138c-23.812,42.69-48.076,86.065-71.54,128.013
					c-14.577,26.059-29.153,52.118-43.718,78.183c-7.711,13.8-15.497,27.859-23.026,41.455c-3.08,5.562-6.16,11.124-9.243,16.684
					c-0.396-0.843-0.814-1.697-1.284-2.538c-24.074-43.022-48.155-86.041-72.235-129.059
					c-20.899-37.334-41.797-74.669-62.692-112.005c-1.079-1.928-2.17-3.85-3.26-5.773c-7.152-12.605-14.548-25.64-18.196-40.023
					c-1.58-6.23-2.8-12.666-3.981-18.891c-0.371-1.957-0.742-3.914-1.124-5.869v-34.12c0.087-0.422,0.175-0.845,0.264-1.267
					c0.23-1.093,0.467-2.224,0.672-3.359c5.656-31.332,17.746-57.968,35.936-79.166c17.9-20.861,42.252-37.095,72.38-48.251
					c10.492-3.885,21.77-5.774,32.675-7.6c1.049-0.176,2.099-0.351,3.147-0.529H490.096 M473.745,271.238l0.122,0
					c59.353-0.066,107.628-48.389,107.613-107.72c-0.015-59.24-48.531-107.436-108.151-107.436l-0.155,0
					c-28.778,0.04-55.863,11.349-76.265,31.842c-20.292,20.383-31.418,47.313-31.33,75.83
					C365.764,223.021,414.286,271.238,473.745,271.238 M490.326,0c-12.198,0-24.396,0-36.594,0
					c-12.314,2.086-24.699,3.922-36.481,8.285c-60.832,22.525-98.289,64.949-109.908,129.318c-0.291,1.612-0.649,3.211-0.976,4.817
					c0,11.539,0,23.077,0,34.616c1.646,8.394,3.073,16.819,5.182,25.133c4.282,16.884,13.339,31.466,21.697,46.401
					c44.971,80.358,89.959,160.705,134.927,241.065c0.881,1.575,1.585,3.25,2.371,4.878c0.66,0,1.319,0,1.978,0
					c11.186-20.162,22.321-40.353,33.568-60.48c38.41-68.738,76.901-137.431,115.259-206.198
					c7.965-14.279,11.892-29.93,14.458-45.96c0.259-1.619,0.593-3.226,0.893-4.838c0-11.538,0-23.077,0-34.616
					c-1.476-7.243-2.405-14.649-4.512-21.703C612.268,54.024,567.148,15.282,499.517,1.711C496.462,1.097,493.39,0.568,490.326,0
					L490.326,0z M473.745,268.738c-58.21,0-105.486-46.959-105.665-104.991c-0.179-57.739,47.136-105.084,105.098-105.165
					c0.053,0,0.098,0,0.152,0c58.338,0,105.637,46.961,105.651,104.937c0.014,57.76-47.335,105.156-105.116,105.22
					C473.822,268.738,473.788,268.738,473.745,268.738L473.745,268.738z"/>
			</g>
			<g id="XMLID_770_">
				<path fill="#FFFFFF" d="M473.531,221.535c-16.09-0.009-31.123-6.202-42.331-17.436c-11.017-11.042-17.068-25.73-17.04-41.357
					c0.06-32.218,26.726-58.429,59.445-58.429l0.425,0.001c32.488,0.227,58.886,26.657,58.844,58.918
					c-0.041,32.147-26.645,58.302-59.305,58.302H473.531z"/>
				<path fill="#134575" d="M473.605,105.564L473.605,105.564l0.416,0.001c15.463,0.108,29.956,6.153,40.81,17.022
					c10.849,10.864,16.813,25.298,16.793,40.644c-0.04,31.46-26.084,57.054-58.093,57.054c-15.756-0.009-30.475-6.071-41.447-17.069
					c-10.78-10.806-16.702-25.179-16.674-40.471C415.468,131.215,441.574,105.564,473.605,105.564 M473.605,103.064
					c-33.293,0.001-60.635,26.834-60.694,59.676c-0.06,33.279,26.942,60.025,60.619,60.045c0.014,0,0.024,0,0.038,0
					c33.421,0,60.514-26.638,60.556-59.551c0.042-33.111-26.745-59.936-60.086-60.169
					C473.894,103.064,473.75,103.064,473.605,103.064L473.605,103.064z"/>
			</g>
		</g>
	</g>
	<g id="XMLID_751_">
		<g id="XMLID_780_">
			<path fill="#FFFFFF" d="M439.969,469.833c-2.986,0-6.071-0.188-9.231-0.398c-0.81-0.054-1.364-0.275-1.695-0.677
				c-0.528-0.639-0.516-1.77-0.412-2.606c1.169-9.43-0.178-18.61-4.003-27.287c-0.612-1.39-0.773-2.425-0.455-2.915
				c0.561-0.861,3.11-0.868,4.199-0.871c4.146-0.011,8.292-0.014,12.438-0.014l16.279,0.005c0.686,0,1.243-0.552,1.25-1.237
				l0.029-2.902c0.003-0.334-0.127-0.655-0.361-0.892c-0.235-0.237-0.555-0.371-0.889-0.371c-2.949,0-5.898-0.012-8.848-0.022
				c-2.953-0.012-5.906-0.023-8.858-0.023c-4.876,0-8.866,0.032-12.558,0.102l-0.448,0.005c-4.681,0-8.404-1.455-12.07-4.717
				c-8.761-7.794-19.817-12.086-31.132-12.086c-11.19,0-22.128,4.211-30.798,11.858c-3.941,3.478-7.888,4.961-13.196,4.961
				c-29.822-0.06-59.779-0.09-89.095-0.09c-29.632,0-59.465,0.031-88.67,0.092c-5.645,0-9.813-1.576-13.997-5.271
				c-8.415-7.435-19.213-11.528-30.403-11.528c-11.423,0-22.371,4.24-30.831,11.938c-3.69,3.359-7.559,4.856-12.544,4.856
				c-0.237,0-0.478-0.003-0.72-0.01c-2.233-0.06-4.313-0.089-6.353-0.089c-7.057,0-13.377,0.363-19.323,1.111
				c-0.57,0.072-1.018,0.523-1.085,1.095c-0.067,0.57,0.264,1.113,0.802,1.315c4.427,1.662,8.906,1.892,13.089,1.892
				c1.059,0,2.117-0.016,3.176-0.031c1.046-0.016,2.09-0.031,3.133-0.031c0.69,0,1.38,0.007,2.068,0.025
				c3.618,0.096,6.701,0.178,7.146,0.83c0.448,0.655-0.629,3.652-1.671,6.55c-2.223,6.185-2.966,13.084-2.338,21.711
				c0.145,1.98-0.135,3.34-0.854,4.155c-0.777,0.881-2.246,1.349-4.621,1.472c-0.667,0.034-1.327,0.052-1.977,0.052
				c-13.888,0-22.439-7.538-22.875-20.165c-0.109-3.177-0.229-6.356-0.348-9.537c-0.856-22.848-1.742-46.474,1.144-69.486
				c3.456-27.561,23.442-44.696,52.158-44.721c20.765-0.018,41.528-0.029,62.293-0.042c42.052-0.025,84.104-0.051,126.155-0.114
				c17.436,0,32.203,7.159,48.34,15.808c16.367,8.771,31.367,19.689,45.14,30.181c7.363,5.609,15.618,7.335,23.442,8.622
				c16.712,2.749,35.682,7.699,49.675,23.567c3.083,3.497,6.969,8.237,9.672,13.903c0.197,0.414,0.389,0.831,0.58,1.247
				c1.649,3.58,3.518,7.639,8.767,8.733c1.136,0.236,1.703,1.523,1.75,2.619l0.025,0.583c0.498,11.553,0.969,22.465-7.662,31.048
				C455.488,468.906,447.183,469.833,439.969,469.833z"/>
			<path fill="#134575" d="M282.764,326.972c17.048,0,31.669,7.092,47.656,15.66c16.292,8.732,31.242,19.614,44.972,30.073
				c7.591,5.783,16.017,7.548,23.997,8.861c16.494,2.714,35.207,7.587,48.94,23.16c3.029,3.435,6.844,8.087,9.481,13.615
				c0.195,0.409,0.384,0.821,0.574,1.232c1.685,3.659,3.781,8.212,9.647,9.434c0.38,0.079,0.726,0.743,0.756,1.45l0.025,0.582
				c0.486,11.27,0.945,21.914-7.294,30.109c-5.24,5.211-11.684,7.435-21.548,7.435c-2.952,0-5.889-0.179-9.148-0.396
				c-0.459-0.031-0.74-0.135-0.814-0.225c-0.11-0.133-0.262-0.631-0.135-1.656c1.197-9.657-0.183-19.059-4.1-27.946
				c-0.428-0.972-0.5-1.494-0.506-1.712c0.304-0.139,1.088-0.314,3.11-0.32c4.105-0.011,8.213-0.014,12.318-0.014l8.196,0.003
				l8.199,0.003c1.371,0,2.486-1.104,2.5-2.475l0.004-0.415l0.025-2.487c0.007-0.667-0.253-1.31-0.723-1.784
				c-0.469-0.474-1.109-0.741-1.777-0.741c-2.949,0-5.899-0.011-8.848-0.023c-2.956-0.011-5.912-0.023-8.867-0.023
				c-4.88,0-8.875,0.032-12.572,0.102c-0.142,0.003-0.284,0.004-0.424,0.004c-4.412,0-7.773-1.316-11.241-4.4
				c-8.99-7.998-20.341-12.402-31.962-12.402c-11.495,0-22.726,4.323-31.624,12.172c-3.743,3.301-7.326,4.648-12.368,4.648l-0.055,0
				c-29.82-0.059-59.825-0.09-89.181-0.09c-29.604,0-59.39,0.031-88.534,0.091l-0.058,0c-5.322,0-9.12-1.437-13.107-4.959
				c-8.644-7.635-19.736-11.841-31.232-11.841c-11.734,0-22.982,4.355-31.672,12.265c-3.489,3.176-6.988,4.53-11.7,4.53
				c-0.228,0-0.456-0.003-0.688-0.009c-2.243-0.06-4.33-0.09-6.381-0.09c-7.113,0-13.486,0.367-19.485,1.121
				c-1.141,0.144-2.037,1.047-2.171,2.189c-0.134,1.142,0.528,2.228,1.604,2.632c4.613,1.732,9.229,1.971,13.529,1.971
				c1.065,0,2.131-0.016,3.196-0.032c1.039-0.015,2.078-0.031,3.115-0.031c0.678,0,1.354,0.007,2.079,0.026
				c2.429,0.065,4.931,0.131,5.961,0.381c-0.14,1.054-0.982,3.395-1.676,5.326c-2.285,6.356-3.05,13.418-2.408,22.225
				c0.117,1.605-0.067,2.695-0.546,3.238c-0.525,0.595-1.786,0.948-3.748,1.05c-0.643,0.033-1.287,0.05-1.913,0.05
				c-13.131,0-21.215-7.087-21.624-18.958c-0.109-3.176-0.229-6.354-0.348-9.535c-0.855-22.8-1.739-46.377,1.135-69.29
				c3.371-26.886,22.882-43.603,50.918-43.626c20.579-0.017,41.159-0.029,61.738-0.042c41.53-0.025,84.474-0.051,126.712-0.115
				L282.764,326.972 M282.764,324.472c-0.032,0-0.064,0-0.096,0c-62.816,0.095-125.632,0.105-188.448,0.157
				c-28.841,0.024-49.816,17.259-53.397,45.815c-3.295,26.274-1.714,52.832-0.805,79.222c0.478,13.871,10.333,21.372,24.123,21.372
				c0.671,0,1.353-0.018,2.042-0.054c4.843-0.251,7.028-1.888,6.658-6.965c-0.522-7.166-0.221-14.275,2.268-21.198
				c3.166-8.808,3.004-8.797-6.62-9.053c-0.698-0.019-1.397-0.026-2.097-0.026c-2.1,0-4.207,0.063-6.312,0.063
				c-4.262,0-8.51-0.257-12.65-1.811c6.412-0.807,12.798-1.102,19.173-1.102c2.106,0,4.21,0.032,6.314,0.089
				c0.254,0.007,0.506,0.01,0.755,0.01c5.155,0,9.312-1.476,13.383-5.182c8.499-7.735,19.236-11.614,29.989-11.614
				c10.545,0,21.105,3.731,29.577,11.215c4.481,3.958,8.949,5.585,14.763,5.585c0.021,0,0.043,0,0.064,0
				c29.512-0.061,59.014-0.091,88.527-0.091c29.722,0,59.454,0.03,89.176,0.09c0.02,0,0.04,0,0.06,0
				c5.518,0,9.758-1.513,14.022-5.273c8.733-7.703,19.348-11.547,29.971-11.547c10.74,0,21.487,3.929,30.3,11.77
				c3.925,3.491,7.889,5.032,12.902,5.032c0.156,0,0.313-0.001,0.471-0.004c4.174-0.079,8.35-0.102,12.525-0.102
				c5.905,0,11.81,0.046,17.715,0.046c-0.01,0.967-0.02,1.935-0.029,2.902c-5.466,0-10.93-0.006-16.395-0.006
				c-4.108,0-8.217,0.003-12.325,0.014c-3.663,0.01-7.15,0.402-4.885,5.54c3.762,8.535,5.05,17.397,3.906,26.63
				c-0.319,2.569,0.457,4.497,3.264,4.684c3.114,0.207,6.235,0.401,9.314,0.401c8.453,0,16.579-1.466,23.311-8.162
				c9.175-9.125,8.503-20.939,8.004-32.571c-0.076-1.768-1.087-3.445-2.744-3.79c-5.18-1.079-6.585-5.334-8.474-9.295
				c-2.511-5.263-6.005-9.818-9.862-14.192c-13.41-15.208-31.325-20.834-50.409-23.973c-8.187-1.347-15.922-3.078-22.888-8.383
				c-14.458-11.014-29.252-21.683-45.306-30.288C316.329,332.245,300.809,324.472,282.764,324.472L282.764,324.472z"/>
		</g>
		<g id="XMLID_787_">
			<path fill="#FFFFFF" d="M169.537,469.817c-3.374,0-5.3-0.486-6.242-1.576c-0.9-1.04-1.137-2.923-0.724-5.755
				c1.048-7.181-0.115-14.684-3.362-21.697c-1.359-2.935-1.251-4.167-0.921-4.684c0.479-0.75,2.106-1.114,4.975-1.114h0.187
				c12.001,0.058,24.719,0.084,41.237,0.084c7.595,0,15.188-0.006,22.781-0.011c7.593-0.006,15.185-0.011,22.777-0.011
				c7.722,0,15.443,0.012,23.166,0.022c7.723,0.012,15.446,0.023,23.169,0.023c15.251,0,27.584-0.048,38.813-0.149l0.348-0.002
				c3.297,0,5.193,0.456,5.8,1.395c0.608,0.943,0.245,2.908-1.08,5.842c-2.923,6.472-3.877,13.435-2.76,20.136
				c0.466,2.792,0.243,4.68-0.683,5.772c-0.99,1.169-2.962,1.69-6.394,1.69l-0.337-0.002c-9.369-0.088-19.602-0.129-32.2-0.129
				c-6.801,0-13.601,0.011-20.4,0.022c-6.717,0.011-13.433,0.022-20.149,0.022c-7.821,0-15.644-0.012-23.466-0.023
				c-7.824-0.012-15.647-0.022-23.47-0.022c-16.249,0-28.799,0.051-40.691,0.164L169.537,469.817z"/>
			<path fill="#134575" d="M335.743,436.198c4.098,0,4.693,0.738,4.747,0.822c0.022,0.035,0.529,0.892-1.168,4.65
				c-3.025,6.699-4.012,13.911-2.853,20.855c0.272,1.632,0.423,3.782-0.404,4.759c-0.711,0.84-2.49,1.248-5.438,1.248l-0.327-0.002
				c-9.37-0.088-19.607-0.13-32.218-0.13c-6.788,0-13.575,0.011-20.363,0.023c-6.727,0.011-13.453,0.022-20.181,0.023h-0.192
				c-7.784,0-15.567-0.011-23.351-0.023c-7.786-0.011-15.571-0.023-23.358-0.023c-16.274,0-28.838,0.051-40.739,0.164l-0.361,0.002
				c-2.9,0-4.633-0.374-5.298-1.144c-0.63-0.729-0.779-2.374-0.432-4.757c1.082-7.421-0.116-15.168-3.465-22.402
				c-1.24-2.678-1.004-3.466-1.017-3.466c0,0,0,0,0,0c0.063-0.062,0.673-0.558,3.94-0.558l0.177,0
				c12.043,0.058,24.814,0.084,41.412,0.084c7.566,0,15.131-0.005,22.697-0.01c7.564-0.005,15.129-0.01,22.693-0.01
				c7.714,0,15.428,0.011,23.143,0.023c7.717,0.011,15.434,0.023,23.15,0.023c15.273,0,27.622-0.047,38.866-0.149L335.743,436.198
				 M335.743,433.698c-0.119,0-0.24,0.001-0.362,0.002c-12.948,0.117-25.894,0.149-38.843,0.149c-15.43,0-30.863-0.045-46.293-0.045
				c-15.131,0-30.259,0.021-45.39,0.021c-13.799,0-27.601-0.017-41.4-0.084c-0.063,0-0.126,0-0.189,0c-5.8,0-8.079,1.34-5.192,7.575
				c3.049,6.586,4.308,13.804,3.26,20.991c-1.045,7.161,1.817,8.762,8.204,8.762c0.126,0,0.255-0.001,0.384-0.002
				c13.571-0.13,27.143-0.164,40.715-0.164c15.571,0,31.138,0.046,46.709,0.046c0.062,0,0.13,0,0.192,0
				c13.516,0,27.028-0.045,40.543-0.045c10.731,0,21.465,0.028,32.195,0.129c0.118,0.001,0.234,0.002,0.351,0.002
				c6.334,0,9.512-1.698,8.308-8.918c-1.107-6.635-0.074-13.348,2.666-19.415C344.768,435.685,342.853,433.698,335.743,433.698
				L335.743,433.698z"/>
		</g>
		<g id="XMLID_797_">
			<path fill="#FFFFFF" d="M116.763,495.018c-20.636-0.202-36.689-16.212-36.547-36.446c0.142-20.154,16.685-36.558,36.876-36.565
				c9.721,0,18.739,3.683,25.41,10.37c6.863,6.881,10.629,16.282,10.604,26.472c-0.052,20.621-15.504,36.172-35.94,36.172
				L116.763,495.018z M116.719,439.759c-9.995,0.15-18.757,9.026-18.752,18.996c0.005,10.138,8.503,18.386,18.942,18.386
				c5.228-0.006,9.944-1.873,13.304-5.259c3.357-3.383,5.203-8.125,5.195-13.352c-0.015-10.352-8.276-18.773-18.418-18.773
				L116.719,439.759z"/>
			<path fill="#134575" d="M117.109,423.256c9.369,0,18.073,3.553,24.507,10.004c6.627,6.644,10.264,15.73,10.239,25.584
				c-0.024,9.706-3.551,18.583-9.929,24.996c-6.369,6.403-15.162,9.93-24.761,9.93l-0.389-0.002
				c-19.937-0.195-35.447-15.651-35.31-35.187c0.066-9.363,3.826-18.212,10.589-24.918c6.764-6.707,15.656-10.403,25.037-10.406
				H117.109L117.109,423.256 M116.91,478.391c0.001,0,0.023,0,0.024,0c5.539-0.006,10.57-2.005,14.166-5.628
				c3.592-3.62,5.566-8.675,5.558-14.234c-0.016-11.04-8.839-20.022-19.669-20.022l-0.29,0.002
				c-10.651,0.159-19.989,9.62-19.983,20.246C96.722,469.582,105.781,478.391,116.91,478.391 M117.108,420.756
				c-0.005,0-0.011,0-0.016,0c-20.772,0.008-37.98,17.073-38.126,37.807c-0.147,20.996,16.388,37.496,37.785,37.705
				c0.139,0.001,0.276,0.002,0.414,0.002c21.223,0,37.136-15.971,37.19-37.419C154.409,437.383,138.151,420.755,117.108,420.756
				L117.108,420.756z M116.91,475.891c-9.818,0-17.689-7.621-17.694-17.137c-0.005-9.343,8.153-17.605,17.521-17.745
				c0.084-0.001,0.168-0.002,0.252-0.002c9.414,0,17.155,7.872,17.169,17.525c0.015,10.118-7.16,17.347-17.227,17.359
				C116.924,475.891,116.918,475.891,116.91,475.891L116.91,475.891z"/>
		</g>
		<g id="XMLID_809_">
			<path fill="#FFFFFF" d="M383.091,495.018c-20.616-0.183-36.691-16.144-36.597-36.337c0.094-20.113,16.567-36.564,36.722-36.673
				l0.201-0.001c9.72,0,18.78,3.788,25.515,10.666c6.743,6.887,10.451,16.157,10.442,26.102
				c-0.018,20.663-15.46,36.245-35.92,36.245L383.091,495.018z M383.015,439.759c-9.99,0.147-18.762,9.007-18.772,18.96
				c-0.006,4.967,1.952,9.608,5.512,13.067c3.549,3.45,8.311,5.352,13.405,5.355h0.001c5.204,0,9.916-1.864,13.283-5.248
				c3.366-3.384,5.218-8.117,5.213-13.327c-0.008-10.371-8.252-18.81-18.376-18.81L383.015,439.759z"/>
			<path fill="#134575" d="M383.417,423.257c9.38,0,18.123,3.655,24.621,10.291c6.513,6.652,10.095,15.611,10.087,25.225
				c-0.009,9.717-3.526,18.61-9.905,25.04c-6.369,6.42-15.163,9.956-24.764,9.956l-0.354-0.002
				c-9.72-0.086-18.692-3.728-25.261-10.255c-6.556-6.514-10.142-15.33-10.098-24.825c0.091-19.431,16.006-35.324,35.478-35.429
				l0.194-0.001H383.417 M383.158,478.392c0.001,0,0.014,0,0.015,0c5.526,0,10.553-1.995,14.157-5.617
				c3.601-3.619,5.581-8.666,5.577-14.209c-0.009-11.06-8.813-20.058-19.626-20.058l-0.285,0.002
				c-10.832,0.16-19.993,9.414-20.004,20.208c-0.006,5.308,2.086,10.268,5.891,13.966
				C372.666,476.361,377.736,478.388,383.158,478.392 M383.416,420.757c-0.069,0-0.139,0-0.207,0.001
				c-20.781,0.112-37.868,17.177-37.965,37.917c-0.099,21.029,16.381,37.402,37.836,37.593c0.125,0.001,0.251,0.002,0.376,0.002
				c21.231,0,37.149-16.022,37.169-37.494C420.644,437.528,404.207,420.757,383.416,420.757L383.416,420.757z M383.173,475.892
				c-0.004,0-0.009,0-0.013,0c-9.859-0.006-17.678-7.606-17.668-17.171c0.01-9.351,8.153-17.573,17.541-17.711
				c0.083-0.001,0.165-0.002,0.248-0.002c9.404,0,17.118,7.88,17.126,17.56C400.415,468.652,393.212,475.892,383.173,475.892
				L383.173,475.892z"/>
		</g>
	</g>
	<path id="XMLID_812_" fill="#FFFFFF" stroke="#134575" stroke-width="2.5" stroke-linejoin="round" stroke-miterlimit="10" d="
		M179.514,382.532c12.648,0,25.296-0.054,37.943,0.031c4.202,0.028,6.864-1.105,6.783-5.995c-0.149-9.071-0.116-18.146-0.017-27.218
		c0.046-4.251-2.017-5.895-6.055-5.89c-25.295,0.032-50.59,0.046-75.885-0.015c-4.484-0.011-6.529,1.916-6.478,6.435
		c0.094,8.247,0.268,16.507-0.083,24.741c-0.266,6.233,2.413,8.159,8.327,8.013C155.863,382.342,167.691,382.547,179.514,382.532z"
		/>
	<path id="XMLID_813_" fill="#FFFFFF" stroke="#134575" stroke-width="2.5" stroke-linejoin="round" stroke-miterlimit="10" d="
		M278.992,382.534c9.648,0,19.297-0.078,28.945,0.033c4.669,0.054,6.023-1.535,3.899-5.948c-3.227-6.702-6.76-13.331-9.178-20.331
		c-3.128-9.055-9.813-12.228-18.346-12.523c-11.29-0.39-22.6-0.141-33.898-0.338c-4.969-0.087-6.929,2.167-6.849,6.997
		c0.136,8.267,0.178,16.543-0.025,24.808c-0.129,5.272,2.01,7.482,7.336,7.361C260.243,382.38,269.619,382.534,278.992,382.534z"/>
	<path id="XMLID_814_" fill="#FFFFFF" stroke="#134575" stroke-width="2.5" stroke-linejoin="round" stroke-miterlimit="10" d="
		M116.91,363.434c-0.023,0-0.046,0-0.069,0c0-4.672,0.049-9.344-0.02-14.015c-0.038-2.586-0.54-5.452-3.652-5.563
		c-7.119-0.254-14.258-0.068-21.386,0.086c-1.763,0.038-2.911,1.349-3.643,2.952c-6.527,14.306,2.055,31.097,17.742,34.699
		c9.194,2.111,10.884,0.856,11.019-8.265C116.95,370.03,116.91,366.731,116.91,363.434z"/>
	<path id="XMLID_815_" fill="#FFFFFF" stroke="#134575" stroke-width="2.5" stroke-linejoin="round" stroke-miterlimit="10" d="
		M323.959,355.893c-0.537,0.362-1.073,0.723-1.61,1.084c3.257,7.143,6.504,14.292,9.778,21.428c1.109,2.418,2.904,3.999,5.682,4.011
		c8.319,0.035,16.639,0.012,24.958,0.012c0.145-0.588,0.289-1.177,0.434-1.765C350.12,372.407,337.04,364.15,323.959,355.893z"/>
</g>
</svg>
